<svg width="104" height="96" viewBox="0 0 104 96" fill="none" xmlns="http://www.w3.org/2000/svg">
<path d="M60.9715 38.9673V66.5049H30.9094C25.5697 66.5024 20.323 67.7677 15.6953 70.1742C11.0676 72.5807 7.22148 76.0437 4.54241 80.2162C4.43287 80.3919 3.81142 81.4278 3.81142 81.4278C1.64751 85.1999 0 94.4263 0 94.4263V66.8866C0 66.7614 0 66.6301 0 66.5049C0.000592796 59.2017 3.21255 52.1977 8.9294 47.0335C14.6463 41.8693 22.3998 38.9678 30.4847 38.9673H60.9715Z" fill="#38A3A5"/>
<path d="M91.4562 1.10107V28.6387H30.9094C25.5695 28.6366 20.3228 29.9023 15.6951 32.3092C11.0674 34.716 7.22137 38.1793 4.54241 42.352C4.43287 42.5277 3.81142 43.5636 3.81142 43.5636C1.64751 47.3438 0 56.5601 0 56.5601V29.0224C0 28.8952 0 28.7659 0 28.6387C0.00118544 21.3356 3.21333 14.3319 8.93006 9.16785C14.6468 4.00377 22.4 1.10215 30.4847 1.10107H91.4562Z" fill="#38A3A5"/>
<path d="M91.4563 1.10084V28.6385H34.0391C26.0407 28.4487 17.5706 30.7426 12.8024 34.0241C12.4783 34.2482 12.1497 34.4724 11.8322 34.7026C11.7853 34.7409 11.7361 34.7753 11.6847 34.8136C11.5573 34.9045 11.4343 34.9954 11.3114 35.0923C10.8419 35.4477 10.3837 35.8193 9.93658 36.1969C9.75327 36.3544 9.57667 36.5139 9.39783 36.6714L8.95075 37.0955C7.26049 38.6814 5.78585 40.444 4.55812 42.3457C4.44858 42.5214 3.82712 43.5573 3.82712 43.5573C3.65276 43.8623 3.48287 44.1995 3.31298 44.567C3.05143 45.1445 2.79659 45.7948 2.55516 46.4834C2.54893 46.4979 2.54371 46.5127 2.53951 46.5278C2.02532 47.8441 1.62473 49.1943 1.34132 50.5665C1.32343 50.6311 1.30778 50.6957 1.2899 50.7684C2.0656 36.633 14.7025 25.032 30.5004 24.8321H79.8387C79.9985 23.1108 80.8686 21.5066 82.2764 20.3378C83.6843 19.1689 85.527 18.5207 87.4392 18.5216C87.5107 18.5216 87.58 18.5216 87.6627 18.5216V11.252C85.7113 11.2045 83.8545 10.482 82.4756 9.23375C81.0967 7.98549 80.3008 6.3067 80.2522 4.54381H34.2022C23.499 3.97031 9.35759 9.51541 3.54769 17.3605C3.36215 17.6129 3.17661 17.8694 2.99778 18.1238C2.29271 19.1435 1.65813 20.2017 1.09766 21.2922C1.37472 20.3822 1.70377 19.4857 2.08348 18.6065C4.19558 14.2097 7.46423 10.3454 11.6054 7.34914C15.7466 4.35292 20.6351 2.31548 25.8462 1.41384C27.3802 1.19482 28.9316 1.09013 30.4847 1.10084H91.4563Z" fill="#22577A" stroke="#22577A" stroke-miterlimit="10"/>
<path d="M61.0274 38.8623L60.9715 66.8866H33.8735C32.8609 66.8866 31.6873 66.8563 30.4846 66.8866C30.4511 66.8846 30.4175 66.8846 30.384 66.8866H30.3415C27.3079 66.9362 24.2995 67.3943 21.4154 68.2456L21.3439 68.2638C10.9536 71.2443 3.21004 78.7785 1.26968 88.6853C2.01184 74.5177 14.6667 62.8782 30.4846 62.6904H51.026C51.0778 61.2346 51.7403 59.8509 52.8793 58.8198C54.0183 57.7887 55.5485 57.1872 57.1601 57.1373V48.1512C55.4759 48.1507 53.8609 47.5461 52.67 46.4703C51.4791 45.3946 50.8098 43.9357 50.8092 42.4143H34.2021C32.9838 42.2891 31.7432 42.4143 30.4846 42.4143C18.8916 42.4143 8.72263 47.7272 2.98873 56.0004C2.40158 56.8325 1.87297 57.6971 1.40604 58.5892C1.35463 58.678 1.30769 58.7689 1.26074 58.8618C1.48022 58.0552 1.75192 57.2609 2.07444 56.483C4.18621 52.0861 7.45476 48.2215 11.596 45.2253C15.7373 42.229 20.6259 40.1917 25.8371 39.2904C27.3711 39.07 28.9225 38.964 30.4757 38.9734L61.0274 38.8623Z" fill="#22577A"/>
<path d="M34.2961 57.7092C39.9086 57.7092 44.4584 55.6542 44.4584 53.1192C44.4584 50.5843 39.9086 48.5293 34.2961 48.5293C28.6836 48.5293 24.1338 50.5843 24.1338 53.1192C24.1338 55.6542 28.6836 57.7092 34.2961 57.7092Z" fill="#22577A"/>
<path d="M46.5751 19.0769C52.8888 19.0769 58.0071 16.7651 58.0071 13.9134C58.0071 11.0617 52.8888 8.75 46.5751 8.75C40.2614 8.75 35.1431 11.0617 35.1431 13.9134C35.1431 16.7651 40.2614 19.0769 46.5751 19.0769Z" fill="#22577A"/>
<path d="M102.83 70.4007C102.829 75.9295 100.767 81.2969 96.9758 85.6373C93.1846 89.9777 87.8856 93.0381 81.9332 94.325C75.9809 95.6119 69.7222 95.0503 64.1664 92.7306C58.6107 90.411 54.0818 86.4687 51.31 81.5393L51.0127 80.6508V80.1379C51.0121 79.7555 51.0951 79.3768 51.257 79.0235C51.4188 78.6702 51.6563 78.3493 51.9558 78.0791C52.2553 77.8089 52.6109 77.5949 53.0023 77.4492C53.3936 77.3034 53.8129 77.229 54.2362 77.2301C55.5216 77.2301 56.3174 77.5713 57.073 78.5971L57.2585 78.8516C58.8604 81.8088 61.3091 84.325 64.3506 86.139C67.392 87.9531 70.9154 88.999 74.5552 89.1682C78.1951 89.3374 81.8187 88.6238 85.0502 87.1013C88.2817 85.5788 91.0034 83.303 92.933 80.51C94.8625 77.7169 95.9295 74.5083 96.0234 71.2171C96.1172 67.9259 95.2345 64.672 93.4668 61.7929C91.699 58.9137 89.1107 56.5144 85.9702 54.8436C82.8297 53.1729 79.2516 52.2916 75.607 52.2913C75.4773 52.2913 75.3521 52.2913 75.227 52.2913C74.3058 52.2497 73.4375 51.8899 72.8018 51.2863C72.1661 50.6827 71.8116 49.8814 71.8116 49.0482C71.8116 48.2151 72.1661 47.4138 72.8018 46.8102C73.4375 46.2065 74.3058 45.8467 75.227 45.8052H75.607C82.8269 45.8079 89.7501 48.4001 94.855 53.0122C99.9598 57.6243 102.828 63.8787 102.83 70.4007Z" fill="#22577A"/>
<path d="M102.341 65.6952H102.361C103.757 72.036 102.333 78.6184 98.3985 84.0185C94.4637 89.4187 88.3336 93.2025 81.3343 94.5515L81.1465 94.5959L80.961 94.6282C80.1492 94.7417 79.32 94.5703 78.6437 94.1491C77.9673 93.728 77.4949 93.0891 77.3234 92.3634C77.1518 91.6376 77.2941 90.8802 77.7211 90.2462C78.1481 89.6123 78.8274 89.1499 79.6197 88.9539C79.7427 88.9378 79.8679 88.9135 79.9908 88.8893C85.288 87.8676 89.9191 84.9872 92.8658 80.8815C95.8124 76.7758 96.8332 71.7811 95.7037 66.9957H95.726C95.6854 66.8871 95.6519 66.7766 95.6255 66.6645C95.449 65.8833 95.6153 65.0707 96.0892 64.3981C96.5632 63.7255 97.3079 63.2454 98.1661 63.0592C99.0243 62.873 99.9291 62.9951 100.69 63.3999C101.45 63.8046 102.007 64.4604 102.242 65.2288C102.258 65.2772 102.269 65.3277 102.283 65.3822C102.309 65.4855 102.328 65.59 102.341 65.6952Z" fill="#38A5A3" stroke="#38A5A3" stroke-miterlimit="10"/>
</svg>
