<svg width="924" height="1101" viewBox="0 0 924 1101" fill="none" xmlns="http://www.w3.org/2000/svg">
<g filter="url(#filter0_d_1020_12747)">
<path d="M592.398 582.907L485.032 554.69C475.684 499.987 437.177 482.97 437.177 482.97L436.963 549.335C403.481 552.274 372.327 567.689 349.68 592.523L312.191 577.113C305.118 575.254 296.648 579.158 294.789 586.231L267.75 689.116C265.891 696.19 271.333 703.807 278.406 705.666L312.198 709.047C314.892 732.548 324.04 754.836 337.981 773.58C337.823 773.78 337.704 773.963 337.554 774.177L317.888 802.603C313.724 808.614 315.247 816.942 321.257 821.109L364.987 851.41C370.997 855.577 379.327 854.068 383.492 848.057L402.49 820.927C405.263 821.854 407.952 823.163 410.815 823.915L521.416 852.982C522.574 853.287 523.853 853.086 525.011 853.358L528.133 886.31C528.804 893.591 535.342 898.89 542.625 898.214L595.607 893.272C602.889 892.598 608.305 886.063 607.631 878.781L604.131 846.428C641.363 831.08 670.667 798.69 681.712 756.661L685.092 743.8C703.682 673.067 663.132 601.496 592.398 582.907Z" stroke="#132D46" stroke-width="10.6379" stroke-miterlimit="10" stroke-linecap="round" stroke-linejoin="round"/>
<path d="M512.697 604.583L595.005 626.214" stroke="#132D46" stroke-width="18.6163" stroke-miterlimit="10" stroke-linecap="round" stroke-linejoin="round"/>
<path d="M423.919 629.327C420.376 642.81 406.543 650.884 393.062 647.341C379.579 643.797 371.505 629.967 375.049 616.484C378.592 603 392.423 594.927 405.906 598.47C419.386 602.013 427.463 615.844 423.919 629.327Z" fill="#132D46"/>
<path d="M558.076 594.93C584.593 601.899 611.739 586.052 618.708 559.534C625.677 533.017 609.83 505.871 583.313 498.902C556.795 491.933 529.649 507.78 522.68 534.297C515.711 560.815 531.558 587.961 558.076 594.93Z" fill="#F0EB7A" stroke="#F9B618" stroke-width="10.6379" stroke-miterlimit="10" stroke-linecap="round" stroke-linejoin="round"/>
<path d="M687.65 738.887C694.727 751.757 710.893 756.456 723.766 749.377C728.711 746.657 732.373 742.086 733.947 736.667C735.521 731.248 734.879 725.425 732.161 720.48C729.985 716.524 726.328 713.595 721.992 712.336C717.657 711.076 712.999 711.591 709.043 713.766C705.879 715.507 703.536 718.433 702.529 721.901C701.522 725.368 701.934 729.094 703.674 732.258" stroke="#132D46" stroke-width="10.6379" stroke-miterlimit="10" stroke-linecap="round" stroke-linejoin="round"/>
<g filter="url(#filter1_d_1020_12747)">
<path d="M435.418 761.409V732.261L491.015 644.818H517.463V683.682H502.35L472.392 731.182V732.261H554.438V761.409H435.418ZM502.62 783V752.503L503.429 739.818V644.818H538.515V783H502.62Z" fill="#37A3A5"/>
</g>
</g>
<path d="M243.402 248.514L315.381 218.972C316.812 180.102 341.989 164.716 341.989 164.716L348.281 210.802C371.814 209.745 394.884 217.57 412.917 232.727L437.535 218.551C442.277 216.605 448.523 218.533 450.469 223.275L478.778 292.25C480.724 296.992 477.649 302.788 472.907 304.734L449.743 310.211C450.047 326.787 445.755 343.118 437.805 357.431C437.933 357.555 438.033 357.672 438.156 357.806L454.45 375.734C457.9 379.525 457.612 385.451 453.822 388.903L426.247 414.002C422.457 417.454 416.53 417.176 413.08 413.385L397.37 396.296C395.53 397.196 393.783 398.355 391.864 399.142L317.715 429.574C316.939 429.893 316.032 429.872 315.253 430.168L316.134 453.35C316.342 458.471 312.29 462.757 307.167 462.962L269.902 464.432C264.78 464.638 260.413 460.6 260.207 455.478L259.644 432.678C232.357 425.461 209 405.671 197.436 377.494L193.897 368.873C174.435 321.452 195.981 267.976 243.402 248.514Z" stroke="#132D46" stroke-width="7.45585" stroke-miterlimit="10" stroke-linecap="round" stroke-linejoin="round"/>
<path d="M300.779 256.194L245.599 278.842" stroke="#132D46" stroke-width="13.0477" stroke-miterlimit="10" stroke-linecap="round" stroke-linejoin="round"/>
<path d="M364.746 265.168C368.456 274.207 378.814 278.535 387.851 274.826C396.89 271.116 401.219 260.76 397.51 251.721C393.8 242.682 383.444 238.353 374.405 242.063C365.367 245.772 361.036 256.129 364.746 265.168Z" fill="#132D46"/>
<path d="M268.36 253.689C250.583 260.985 230.256 252.488 222.96 234.711C215.664 216.933 224.16 196.607 241.938 189.311C259.715 182.014 280.042 190.511 287.338 208.289C294.634 226.066 286.138 246.392 268.36 253.689Z" fill="#F0EB7A" stroke="#F9B618" stroke-width="7.45585" stroke-miterlimit="10" stroke-linecap="round" stroke-linejoin="round"/>
<path d="M191.665 365.695C187.94 375.292 177.144 380.053 167.545 376.327C163.858 374.895 160.891 372.058 159.295 368.439C157.7 364.82 157.607 360.715 159.038 357.028C160.183 354.078 162.453 351.704 165.349 350.428C168.244 349.152 171.528 349.079 174.478 350.224C176.837 351.14 178.735 352.956 179.756 355.272C180.776 357.588 180.835 360.215 179.919 362.574" stroke="#132D46" stroke-width="7.45585" stroke-miterlimit="10" stroke-linecap="round" stroke-linejoin="round"/>
<g filter="url(#filter2_d_1020_12747)">
<path d="M321.002 389.643C311.855 388.281 304.258 385.017 298.21 379.851C292.161 374.685 287.908 367.888 285.448 359.459C282.989 351.03 282.578 341.291 284.217 330.243C285.861 319.161 289.032 310.01 293.732 302.789C298.465 295.572 304.437 290.428 311.648 287.356C318.893 284.289 327.091 283.421 336.242 284.75C345.393 286.08 353.002 289.262 359.069 294.296C365.142 299.298 369.419 305.931 371.903 314.196C374.386 322.461 374.808 332.118 373.169 343.167C371.554 354.286 368.368 363.536 363.611 370.916C358.855 378.297 352.843 383.602 345.574 386.833C338.344 390.036 330.153 390.973 321.002 389.643ZM324.233 367.405C328.956 368.091 333.184 366.194 336.916 361.712C340.686 357.203 343.324 349.648 344.831 339.049C345.836 332.129 345.969 326.371 345.23 321.775C344.491 317.18 343.061 313.657 340.939 311.205C338.821 308.72 336.188 307.249 333.039 306.792C328.316 306.105 324.114 307.94 320.434 312.295C316.753 316.65 314.127 324.005 312.556 334.36C311.498 341.407 311.327 347.31 312.043 352.07C312.762 356.796 314.179 360.418 316.291 362.936C318.437 365.458 321.084 366.948 324.233 367.405Z" fill="#37A3A5"/>
</g>
<path d="M628.531 220.137L667.727 222.355C676.728 206.926 691.524 205.659 691.524 205.659L684.498 225.524C695.466 229.725 704.315 237.426 709.29 247.099L723.571 246.212C726.153 246.358 728.589 248.366 728.459 250.665L726.567 284.112C726.436 286.411 723.788 288.149 721.206 288.003L709.458 285.66C706.036 292.42 700.57 298.176 693.868 302.397C693.899 302.473 693.92 302.539 693.947 302.618L697.534 313.069C698.294 315.28 696.89 317.619 694.419 318.268L676.443 322.989C673.972 323.638 671.327 322.36 670.566 320.15L667.066 310.152C666.033 310.154 664.987 310.279 663.942 310.22L623.564 307.935C623.141 307.911 622.732 307.724 622.312 307.69L617.736 317.233C616.731 319.344 613.961 320.279 611.579 319.354L594.255 312.619C591.873 311.695 590.747 309.203 591.753 307.093L596.393 297.766C585.489 289.482 579.078 276.889 579.852 263.226L580.088 259.046C581.389 236.051 602.708 218.675 628.531 220.137Z" stroke="#132D46" stroke-width="3.76208" stroke-miterlimit="10" stroke-linecap="round" stroke-linejoin="round"/>
<path d="M653.069 234.527L623.02 232.827" stroke="#132D46" stroke-width="6.58364" stroke-miterlimit="10" stroke-linecap="round" stroke-linejoin="round"/>
<path d="M680.338 250.736C680.09 255.119 683.887 258.906 688.809 259.184C693.731 259.463 697.931 256.129 698.179 251.745C698.427 247.362 694.63 243.576 689.708 243.297C684.786 243.018 680.586 246.353 680.338 250.736Z" fill="#132D46"/>
<path d="M638.811 227.138C629.13 226.59 621.678 219.158 622.165 210.537C622.653 201.917 630.897 195.372 640.577 195.92C650.258 196.468 657.711 203.9 657.223 212.521C656.735 221.141 648.492 227.685 638.811 227.138Z" fill="#F0EB7A" stroke="#F9B618" stroke-width="3.76208" stroke-miterlimit="10" stroke-linecap="round" stroke-linejoin="round"/>
<path d="M579.752 257.323C575.99 260.468 570.04 260.269 566.459 256.875C565.084 255.571 564.339 253.841 564.388 252.064C564.437 250.288 565.277 248.61 566.721 247.402C567.878 246.435 569.423 245.922 571.019 245.975C572.615 246.029 574.129 246.645 575.23 247.688C576.11 248.523 576.586 249.63 576.554 250.767C576.523 251.904 575.986 252.977 575.061 253.75" stroke="#132D46" stroke-width="3.76208" stroke-miterlimit="10" stroke-linecap="round" stroke-linejoin="round"/>
<g filter="url(#filter3_d_1020_12747)">
<path d="M623.342 287.182L623.342 277.977L640.899 250.364L649.251 250.364L649.251 262.636L644.479 262.636L635.018 277.636L635.018 277.977L660.927 277.977L660.927 287.182L623.342 287.182ZM644.564 294L644.564 284.369L644.819 280.364L644.819 250.364L655.899 250.364L655.899 294L644.564 294Z" fill="#37A3A5"/>
</g>
<defs>
<filter id="filter0_d_1020_12747" x="88.4302" y="268.757" width="839.518" height="839.518" filterUnits="userSpaceOnUse" color-interpolation-filters="sRGB">
<feFlood flood-opacity="0" result="BackgroundImageFix"/>
<feColorMatrix in="SourceAlpha" type="matrix" values="0 0 0 0 0 0 0 0 0 0 0 0 0 0 0 0 0 0 127 0" result="hardAlpha"/>
<feOffset dy="4"/>
<feGaussianBlur stdDeviation="2"/>
<feComposite in2="hardAlpha" operator="out"/>
<feColorMatrix type="matrix" values="0 0 0 0 0 0 0 0 0 0 0 0 0 0 0 0 0 0 0.25 0"/>
<feBlend mode="normal" in2="BackgroundImageFix" result="effect1_dropShadow_1020_12747"/>
<feBlend mode="normal" in="SourceGraphic" in2="effect1_dropShadow_1020_12747" result="shape"/>
</filter>
<filter id="filter1_d_1020_12747" x="431.418" y="644.818" width="127.02" height="146.182" filterUnits="userSpaceOnUse" color-interpolation-filters="sRGB">
<feFlood flood-opacity="0" result="BackgroundImageFix"/>
<feColorMatrix in="SourceAlpha" type="matrix" values="0 0 0 0 0 0 0 0 0 0 0 0 0 0 0 0 0 0 127 0" result="hardAlpha"/>
<feOffset dy="4"/>
<feGaussianBlur stdDeviation="2"/>
<feComposite in2="hardAlpha" operator="out"/>
<feColorMatrix type="matrix" values="0 0 0 0 0 0 0 0 0 0 0 0 0 0 0 0 0 0 0.25 0"/>
<feBlend mode="normal" in2="BackgroundImageFix" result="effect1_dropShadow_1020_12747"/>
<feBlend mode="normal" in="SourceGraphic" in2="effect1_dropShadow_1020_12747" result="shape"/>
</filter>
<filter id="filter2_d_1020_12747" x="272.476" y="278.281" width="112.291" height="125.831" filterUnits="userSpaceOnUse" color-interpolation-filters="sRGB">
<feFlood flood-opacity="0" result="BackgroundImageFix"/>
<feColorMatrix in="SourceAlpha" type="matrix" values="0 0 0 0 0 0 0 0 0 0 0 0 0 0 0 0 0 0 127 0" result="hardAlpha"/>
<feOffset dy="4"/>
<feGaussianBlur stdDeviation="2"/>
<feComposite in2="hardAlpha" operator="out"/>
<feColorMatrix type="matrix" values="0 0 0 0 0 0 0 0 0 0 0 0 0 0 0 0 0 0 0.25 0"/>
<feBlend mode="normal" in2="BackgroundImageFix" result="effect1_dropShadow_1020_12747"/>
<feBlend mode="normal" in="SourceGraphic" in2="effect1_dropShadow_1020_12747" result="shape"/>
</filter>
<filter id="filter3_d_1020_12747" x="619.342" y="250.364" width="45.585" height="51.6362" filterUnits="userSpaceOnUse" color-interpolation-filters="sRGB">
<feFlood flood-opacity="0" result="BackgroundImageFix"/>
<feColorMatrix in="SourceAlpha" type="matrix" values="0 0 0 0 0 0 0 0 0 0 0 0 0 0 0 0 0 0 127 0" result="hardAlpha"/>
<feOffset dy="4"/>
<feGaussianBlur stdDeviation="2"/>
<feComposite in2="hardAlpha" operator="out"/>
<feColorMatrix type="matrix" values="0 0 0 0 0 0 0 0 0 0 0 0 0 0 0 0 0 0 0.25 0"/>
<feBlend mode="normal" in2="BackgroundImageFix" result="effect1_dropShadow_1020_12747"/>
<feBlend mode="normal" in="SourceGraphic" in2="effect1_dropShadow_1020_12747" result="shape"/>
</filter>
</defs>
</svg>
