<svg width="659" height="284" viewBox="0 0 659 284" fill="none" xmlns="http://www.w3.org/2000/svg">
<path d="M34.875 175.501C35.0095 187.196 37.884 198.697 43.2677 209.081C48.6513 219.465 56.3942 228.442 65.875 235.292V249.397C65.875 253.436 67.4794 257.309 70.3354 260.165C73.1913 263.021 77.0648 264.626 81.1037 264.626C84.5103 264.618 87.816 263.469 90.4924 261.362C93.1688 259.254 95.0614 256.31 95.8675 253.001L96.6425 249.939C112.045 253.918 128.205 253.918 143.607 249.939L144.382 253.001C145.189 256.31 147.081 259.254 149.758 261.362C152.434 263.469 155.74 264.618 159.146 264.626C163.185 264.626 167.059 263.021 169.915 260.165C172.771 257.309 174.375 253.436 174.375 249.397V235.292C181.158 230.215 187.107 224.109 192.006 217.196C195.022 212.765 199.063 209.127 203.785 206.59C208.507 204.054 213.771 202.694 219.131 202.626H220.875C222.93 202.626 224.902 201.809 226.355 200.356C227.808 198.902 228.625 196.931 228.625 194.876V160.001C228.625 157.945 227.808 155.974 226.355 154.521C224.902 153.067 222.93 152.251 220.875 152.251H201.5C198.827 144.566 194.899 137.377 189.875 130.977V90.2506C184.169 90.2083 178.646 92.2658 174.359 96.0315C170.072 99.7972 167.319 105.008 166.625 110.672C161.706 107.727 156.516 105.262 151.125 103.309V125.126H89.125V103.271C57.3887 114.547 34.875 142.641 34.875 175.501Z" fill="#F9A49B"/>
<path d="M19.375 202.625C20.4027 202.625 21.3883 202.217 22.115 201.49C22.8417 200.763 23.25 199.778 23.25 198.75V191C23.25 187.917 24.4748 184.96 26.6549 182.78C28.835 180.6 31.7919 179.375 34.875 179.375C35.9027 179.375 36.8883 178.967 37.615 178.24C38.3417 177.513 38.75 176.528 38.75 175.5C38.75 174.472 38.3417 173.487 37.615 172.76C36.8883 172.033 35.9027 171.625 34.875 171.625C29.7364 171.625 24.8083 173.666 21.1748 177.3C17.5413 180.933 15.5 185.861 15.5 191V198.75C15.5 199.778 15.9083 200.763 16.635 201.49C17.3617 202.217 18.3473 202.625 19.375 202.625Z" fill="#F26A56"/>
<path d="M89.125 63.125V125.125H105.129C104.783 123.863 104.613 122.559 104.625 121.25C104.625 117.139 106.258 113.197 109.165 110.29C112.072 107.383 116.014 105.75 120.125 105.75C124.236 105.75 128.178 107.383 131.085 110.29C133.992 113.197 135.625 117.139 135.625 121.25C135.637 122.559 135.467 123.863 135.121 125.125H151.125V63.125C151.125 61.0696 150.308 59.0983 148.855 57.6449C147.402 56.1915 145.43 55.375 143.375 55.375H96.875C94.8196 55.375 92.8483 56.1915 91.3949 57.6449C89.9415 59.0983 89.125 61.0696 89.125 63.125Z" fill="#0E9347"/>
<path d="M104.624 121.25C104.613 122.559 104.782 123.863 105.128 125.125H135.121C135.467 123.863 135.636 122.559 135.624 121.25C135.624 117.139 133.991 113.197 131.085 110.29C128.178 107.383 124.235 105.75 120.124 105.75C116.014 105.75 112.071 107.383 109.164 110.29C106.257 113.197 104.624 117.139 104.624 121.25Z" fill="#3BB54A"/>
<path d="M180.188 156.125C176.977 156.125 174.375 153.523 174.375 150.312C174.375 147.102 176.977 144.5 180.188 144.5C183.398 144.5 186 147.102 186 150.312C186 153.523 183.398 156.125 180.188 156.125Z" fill="#494A52"/>
<path d="M34.875 175.5C35.0095 187.196 37.884 198.697 43.2677 209.081C48.6513 219.465 56.3942 228.442 65.875 235.292V248.777C65.8117 251.852 66.6516 254.879 68.2908 257.483C69.93 260.086 72.2965 262.152 75.0975 263.424C77.1321 264.291 79.3311 264.704 81.5417 264.635C83.7522 264.567 85.9212 264.017 87.8978 263.025C89.8745 262.033 91.6113 260.622 92.9877 258.891C94.364 257.16 95.3467 255.15 95.8675 253L96.6425 249.939C112.045 253.918 128.205 253.918 143.607 249.939L144.382 253C145.295 256.612 147.501 259.764 150.581 261.86C153.662 263.955 157.403 264.849 161.098 264.372C164.793 263.894 168.185 262.079 170.632 259.269C173.078 256.46 174.41 252.851 174.375 249.125V235.292C181.172 230.202 187.134 224.084 192.045 217.157C195.054 212.721 199.094 209.082 203.818 206.551C208.543 204.02 213.811 202.673 219.17 202.625H220.875C222.93 202.625 224.902 201.809 226.355 200.355C227.808 198.902 228.625 196.931 228.625 194.875V187.125H219.867C214.851 187.059 209.89 188.188 205.396 190.418C200.902 192.649 197.003 195.916 194.021 199.952C179.606 220.102 152.791 233.625 122.062 233.625C76.0663 233.625 38.75 203.245 38.75 165.813C38.8798 157.718 40.6302 149.73 43.8981 142.323C47.1659 134.915 51.8848 128.238 57.7762 122.684C50.607 129.498 44.8842 137.687 40.9495 146.761C37.0148 155.836 34.9489 165.61 34.875 175.5Z" fill="#F26A56"/>
<path d="M81.375 129H158.875C159.903 129 160.888 128.592 161.615 127.865C162.342 127.138 162.75 126.153 162.75 125.125C162.75 124.097 162.342 123.112 161.615 122.385C160.888 121.658 159.903 121.25 158.875 121.25H81.375C80.3473 121.25 79.3617 121.658 78.635 122.385C77.9083 123.112 77.5 124.097 77.5 125.125C77.5 126.153 77.9083 127.138 78.635 127.865C79.3617 128.592 80.3473 129 81.375 129Z" fill="#F04B4D"/>
<g filter="url(#filter0_d_1020_12748)">
<path d="M87.4663 189.091V167.614L128.432 103.182H147.921V131.818H136.784L114.711 166.818V167.614H175.165V189.091H87.4663ZM136.983 205V182.528L137.58 173.182V103.182H163.432V205H136.983Z" fill="#37A3A5"/>
</g>
<path d="M280.306 169.516C280.161 175.126 281.333 180.693 283.729 185.768C286.124 190.844 289.676 195.287 294.1 198.741L293.847 205.505C293.775 207.441 294.474 209.328 295.793 210.748C297.111 212.169 298.94 213.008 300.876 213.08C302.51 213.137 304.116 212.646 305.437 211.683C306.758 210.72 307.718 209.343 308.164 207.77L308.59 206.316C315.904 208.5 323.654 208.789 331.11 207.158L331.427 208.639C331.754 210.241 332.609 211.686 333.855 212.745C335.1 213.803 336.665 214.414 338.298 214.478C340.235 214.55 342.121 213.85 343.541 212.532C344.962 211.214 345.801 209.385 345.873 207.449L346.126 200.685C349.469 198.372 352.431 195.551 354.904 192.324C356.43 190.253 358.433 188.581 360.742 187.449C363.052 186.318 365.601 185.76 368.172 185.823L369.008 185.855C369.994 185.891 370.953 185.535 371.676 184.864C372.399 184.193 372.826 183.263 372.863 182.277L373.488 165.555C373.525 164.569 373.168 163.609 372.497 162.886C371.827 162.163 370.896 161.736 369.91 161.7L360.62 161.353C359.476 157.62 357.721 154.102 355.427 150.943L356.157 131.415C353.421 131.292 350.736 132.18 348.613 133.909C346.49 135.638 345.076 138.087 344.642 140.791C342.336 139.29 339.892 138.015 337.342 136.983L336.951 147.443L307.222 146.333L307.613 135.853C292.194 140.692 280.895 153.759 280.306 169.516Z" fill="#F9A49B"/>
<path d="M272.388 182.245C272.88 182.263 273.36 182.085 273.722 181.749C274.083 181.414 274.297 180.949 274.315 180.456L274.454 176.74C274.509 175.261 275.149 173.865 276.234 172.859C277.318 171.853 278.758 171.319 280.236 171.374C280.729 171.392 281.209 171.214 281.571 170.879C281.932 170.543 282.146 170.078 282.164 169.585C282.182 169.092 282.004 168.612 281.669 168.251C281.333 167.889 280.868 167.676 280.375 167.658C277.911 167.566 275.512 168.456 273.704 170.133C271.897 171.81 270.83 174.137 270.738 176.601L270.599 180.317C270.581 180.81 270.759 181.29 271.094 181.651C271.43 182.013 271.895 182.226 272.388 182.245Z" fill="#F26A56"/>
<path d="M308.333 116.603L307.222 146.333L314.896 146.619C314.753 146.008 314.695 145.38 314.724 144.752C314.798 142.781 315.651 140.92 317.097 139.578C318.543 138.236 320.463 137.524 322.434 137.598C324.405 137.671 326.266 138.525 327.608 139.971C328.95 141.417 329.662 143.337 329.589 145.308C329.571 145.935 329.466 146.558 329.278 147.157L336.952 147.443L338.062 117.714C338.099 116.729 337.743 115.769 337.072 115.046C336.401 114.323 335.471 113.896 334.485 113.859L312.188 113.026C311.202 112.989 310.243 113.346 309.52 114.016C308.797 114.687 308.37 115.618 308.333 116.603Z" fill="#0E9347"/>
<path d="M314.724 144.752C314.695 145.379 314.753 146.008 314.896 146.619L329.277 147.156C329.466 146.557 329.57 145.935 329.588 145.307C329.662 143.336 328.949 141.416 327.608 139.971C326.266 138.525 324.405 137.671 322.434 137.597C320.462 137.524 318.543 138.236 317.097 139.578C315.651 140.92 314.797 142.781 314.724 144.752Z" fill="#3BB54A"/>
<path d="M350.332 162.829C348.792 162.771 347.591 161.477 347.649 159.937C347.706 158.398 349.001 157.197 350.54 157.254C352.079 157.312 353.281 158.606 353.223 160.146C353.166 161.685 351.871 162.886 350.332 162.829Z" fill="#494A52"/>
<path d="M280.306 169.516C280.161 175.126 281.333 180.693 283.729 185.768C286.124 190.844 289.676 195.287 294.1 198.741L293.858 205.207C293.773 206.681 294.121 208.148 294.86 209.425C295.6 210.703 296.698 211.736 298.018 212.396C298.978 212.848 300.025 213.086 301.086 213.092C302.147 213.099 303.197 212.874 304.163 212.434C305.128 211.994 305.986 211.348 306.677 210.543C307.368 209.738 307.876 208.791 308.164 207.77L308.59 206.316C315.904 208.5 323.654 208.789 331.11 207.157L331.427 208.639C331.8 210.387 332.801 211.938 334.241 212.998C335.68 214.058 337.458 214.554 339.239 214.391C341.019 214.228 342.678 213.419 343.901 212.115C345.125 210.812 345.828 209.105 345.878 207.318L346.126 200.685C349.476 198.366 352.445 195.539 354.924 192.306C356.446 190.233 358.448 188.56 360.759 187.431C363.07 186.302 365.62 185.751 368.19 185.824L369.008 185.854C369.994 185.891 370.953 185.535 371.676 184.864C372.399 184.193 372.826 183.263 372.863 182.277L373.002 178.561L368.803 178.404C366.398 178.283 363.999 178.735 361.804 179.724C359.609 180.713 357.681 182.21 356.179 184.091C348.906 193.495 335.806 199.499 321.072 198.949C299.016 198.125 281.667 182.889 282.338 164.94C282.545 161.061 283.527 157.262 285.227 153.769C286.927 150.275 289.309 147.158 292.234 144.6C288.674 147.739 285.783 151.563 283.734 155.844C281.684 160.125 280.519 164.774 280.306 169.516Z" fill="#F26A56"/>
<path d="M303.436 148.052L340.598 149.44C341.091 149.459 341.571 149.281 341.932 148.945C342.293 148.61 342.507 148.144 342.525 147.652C342.544 147.159 342.366 146.679 342.03 146.317C341.695 145.956 341.229 145.742 340.737 145.724L303.575 144.336C303.082 144.317 302.602 144.495 302.241 144.831C301.879 145.166 301.666 145.631 301.648 146.124C301.629 146.617 301.807 147.097 302.143 147.458C302.478 147.82 302.943 148.033 303.436 148.052Z" fill="#F04B4D"/>
<g clip-path="url(#clip0_1020_12748)">
<path d="M450.642 177.75C454.158 187.411 459.89 196.114 467.379 203.159C474.867 210.204 483.902 215.396 493.76 218.317L497.866 230.016C499.042 233.366 501.5 236.112 504.701 237.65C507.901 239.187 511.581 239.39 514.931 238.214C517.754 237.217 520.161 235.301 521.768 232.774C523.374 230.247 524.087 227.254 523.792 224.274L523.544 221.51C537.477 220.326 550.881 215.621 562.498 207.837L564.032 210.151C565.664 212.661 568.09 214.552 570.924 215.521C573.757 216.49 576.834 216.481 579.661 215.495C583.011 214.319 585.757 211.861 587.294 208.661C588.832 205.46 589.035 201.78 587.859 198.43L583.753 186.731C587.901 180.545 591.058 173.749 593.109 166.589C594.32 162.036 596.613 157.842 599.791 154.364C602.969 150.885 606.94 148.225 611.365 146.608L612.812 146.1C614.516 145.502 615.914 144.251 616.696 142.622C617.479 140.994 617.582 139.121 616.984 137.416L606.831 108.49C606.233 106.785 604.981 105.388 603.353 104.605C601.724 103.823 599.851 103.72 598.147 104.318L582.077 109.958C577.622 104.362 572.271 99.5434 566.241 95.6974L554.385 61.918C549.64 63.544 545.659 66.8582 543.199 71.2297C540.739 75.6011 539.973 80.7245 541.046 85.6243C536.109 84.6138 531.086 84.0799 526.047 84.03L532.398 102.125L480.973 120.174L474.611 102.047C451.571 120.639 441.076 150.495 450.642 177.75Z" fill="#F9A49B"/>
<path d="M445.682 204.759C446.534 204.46 447.233 203.835 447.624 203.02C448.015 202.206 448.067 201.27 447.768 200.417L445.512 193.989C444.614 191.432 444.769 188.623 445.943 186.18C447.116 183.737 449.212 181.86 451.77 180.963C452.622 180.664 453.321 180.038 453.712 179.224C454.103 178.41 454.155 177.473 453.856 176.621C453.556 175.768 452.931 175.07 452.117 174.679C451.302 174.287 450.366 174.236 449.514 174.535C445.251 176.031 441.758 179.158 439.802 183.23C437.846 187.301 437.588 191.983 439.084 196.245L441.34 202.673C441.639 203.526 442.265 204.224 443.079 204.616C443.893 205.007 444.83 205.059 445.682 204.759Z" fill="#F26A56"/>
<path d="M462.924 68.7492L480.974 120.174L494.248 115.515C493.593 114.569 493.073 113.536 492.702 112.447C491.505 109.038 491.712 105.292 493.276 102.035C494.841 98.7779 497.636 96.2757 501.045 95.0789C504.455 93.8822 508.201 94.089 511.458 95.6538C514.715 97.2185 517.217 100.013 518.414 103.423C518.805 104.505 519.044 105.636 519.124 106.783L532.398 102.125L514.349 50.7C513.751 48.9952 512.499 47.5979 510.871 46.8155C509.242 46.0331 507.37 45.9297 505.665 46.5281L467.096 60.065C465.392 60.6633 463.994 61.9144 463.212 63.5431C462.429 65.1717 462.326 67.0444 462.924 68.7492Z" fill="#0E9347"/>
<path d="M492.701 112.447C493.072 113.536 493.592 114.568 494.247 115.515L519.123 106.783C519.043 105.636 518.804 104.505 518.413 103.423C517.216 100.013 514.714 97.2184 511.457 95.6537C508.2 94.0889 504.454 93.8821 501.045 95.0789C497.635 96.2756 494.841 98.7778 493.276 102.035C491.711 105.292 491.504 109.038 492.701 112.447Z" fill="#3BB54A"/>
<path d="M565.528 119.376C562.865 120.311 559.949 118.91 559.015 116.247C558.08 113.585 559.481 110.669 562.144 109.734C564.806 108.8 567.722 110.2 568.657 112.863C569.591 115.526 568.191 118.442 565.528 119.376Z" fill="#494A52"/>
<path d="M450.642 177.749C454.158 187.411 459.891 196.114 467.379 203.159C474.867 210.204 483.903 215.396 493.76 218.317L497.686 229.502C498.529 232.072 500.107 234.338 502.224 236.02C504.342 237.702 506.906 238.726 509.599 238.966C511.539 239.093 513.484 238.796 515.297 238.095C517.11 237.394 518.75 236.307 520.1 234.909C521.451 233.511 522.481 231.835 523.118 229.999C523.756 228.162 523.986 226.209 523.792 224.274L523.544 221.509C537.477 220.326 550.881 215.621 562.498 207.837L564.032 210.151C565.841 212.881 568.587 214.853 571.752 215.695C574.917 216.536 578.281 216.188 581.207 214.716C584.132 213.245 586.417 210.752 587.628 207.709C588.84 204.666 588.894 201.285 587.78 198.205L583.753 186.731C587.909 180.531 591.073 173.721 593.13 166.546C594.334 161.991 596.625 157.796 599.807 154.322C602.989 150.847 606.966 148.196 611.398 146.597L612.812 146.1C614.517 145.502 615.914 144.251 616.696 142.622C617.479 140.994 617.582 139.121 616.984 137.416L614.728 130.988L607.464 133.537C603.284 134.943 599.498 137.323 596.42 140.482C593.341 143.64 591.059 147.485 589.76 151.7C583.67 172.609 565.366 191.633 539.879 200.578C501.728 213.968 461.933 199.634 451.036 168.586C448.787 161.834 447.913 154.7 448.467 147.604C449.021 140.509 450.991 133.597 454.261 127.275C450.298 135.014 447.936 143.472 447.314 152.144C446.692 160.816 447.824 169.524 450.642 177.749Z" fill="#F26A56"/>
<path d="M475.674 125.644L539.954 103.083C540.807 102.783 541.505 102.158 541.896 101.343C542.288 100.529 542.339 99.5928 542.04 98.7404C541.741 97.888 541.115 97.1893 540.301 96.7981C539.487 96.4069 538.55 96.3553 537.698 96.6544L473.417 119.216C472.565 119.515 471.866 120.141 471.475 120.955C471.084 121.769 471.032 122.706 471.332 123.558C471.631 124.41 472.256 125.109 473.071 125.5C473.885 125.891 474.821 125.943 475.674 125.644Z" fill="#F04B4D"/>
</g>
<defs>
<filter id="filter0_d_1020_12748" x="83.4658" y="103.182" width="95.6992" height="109.818" filterUnits="userSpaceOnUse" color-interpolation-filters="sRGB">
<feFlood flood-opacity="0" result="BackgroundImageFix"/>
<feColorMatrix in="SourceAlpha" type="matrix" values="0 0 0 0 0 0 0 0 0 0 0 0 0 0 0 0 0 0 127 0" result="hardAlpha"/>
<feOffset dy="4"/>
<feGaussianBlur stdDeviation="2"/>
<feComposite in2="hardAlpha" operator="out"/>
<feColorMatrix type="matrix" values="0 0 0 0 0 0 0 0 0 0 0 0 0 0 0 0 0 0 0.25 0"/>
<feBlend mode="normal" in2="BackgroundImageFix" result="effect1_dropShadow_1020_12748"/>
<feBlend mode="normal" in="SourceGraphic" in2="effect1_dropShadow_1020_12748" result="shape"/>
</filter>
<clipPath id="clip0_1020_12748">
<rect width="218" height="218" fill="white" transform="matrix(-0.943569 0.331177 0.331177 0.943569 586.803 0)"/>
</clipPath>
</defs>
</svg>
