<svg width="73" height="65" viewBox="0 0 73 65" fill="none" xmlns="http://www.w3.org/2000/svg">
<path d="M15.627 39.582H26.1031C27.3243 39.582 28.5329 39.8029 29.6567 40.2317C30.7805 40.6605 31.7964 41.2882 32.6437 42.0773L35.3361 44.5859H47.1379C48.2035 44.5859 49.2253 44.9658 49.9788 45.642C50.7322 46.3181 51.1555 47.2352 51.1555 48.1914C51.1555 48.2777 51.1521 48.3636 51.1453 48.4484L61.3809 39.263C62.1343 38.5872 63.1559 38.2075 64.2212 38.2075C65.2864 38.2075 66.3081 38.5872 67.0615 39.263C67.8146 39.9392 68.2376 40.856 68.2376 41.812C68.2376 42.768 67.8146 43.6849 67.0615 44.361L51.628 58.2095C50.5411 59.1849 49.0671 59.7329 47.5301 59.733H15.627V39.582Z" fill="#FCD0A3"/>
<path d="M4.76327 37.5176H15.627V61.7976H4.76327V37.5176Z" fill="#132D46"/>
<path d="M51.6145 34.8387C56.962 30.0398 56.962 22.2591 51.6145 17.4601C46.2671 12.6611 37.5972 12.6611 32.2498 17.4601C26.9023 22.2591 26.9023 30.0398 32.2498 34.8387C37.5972 39.6377 46.2671 39.6377 51.6145 34.8387Z" fill="#F4DD45"/>
<path d="M48.5741 32.1101C52.2423 28.8181 52.2423 23.4807 48.5741 20.1887C44.9058 16.8967 38.9585 16.8967 35.2902 20.1887C31.622 23.4807 31.622 28.8181 35.2902 32.1101C38.9585 35.4021 44.9058 35.4021 48.5741 32.1101Z" fill="#FCC101"/>
<path d="M42.7023 31.2268V32.149H41.2418V31.1841C39.8435 31.0424 38.5327 30.5023 37.5016 29.6429L38.6576 28.3607C39.378 28.9762 40.2712 29.4045 41.2418 29.5997V26.79C39.2676 26.3294 37.935 25.6957 37.935 23.9971C37.935 22.4416 39.2676 21.2457 41.2418 21.0299V20.1499H42.7023V21.0431C43.9551 21.1592 45.135 21.6279 46.073 22.3822L44.9815 23.7076C44.3337 23.183 43.5503 22.8117 42.7023 22.6275V25.3356C44.9017 25.782 46.3622 26.4589 46.3622 28.216C46.3622 29.8729 45.0296 31.0826 42.7023 31.2268V31.2268ZM41.2418 24.9893V22.5975C40.9033 22.6434 40.5921 22.7908 40.3588 23.0157C40.1256 23.2406 39.9841 23.5298 39.9573 23.8361C39.9573 24.4135 40.3755 24.7161 41.2418 24.9893ZM44.354 28.3917C44.354 27.7315 43.8402 27.4268 42.7006 27.1221V29.6861C43.7944 29.5703 44.3557 29.0229 44.3557 28.3891L44.354 28.3917ZM41.9321 10.993C41.8021 10.9931 41.6733 10.9701 41.5531 10.9255C41.4329 10.8808 41.3237 10.8154 41.2318 10.7329C41.1398 10.6503 41.0669 10.5523 41.0171 10.4445C40.9674 10.3366 40.9418 10.221 40.9419 10.1043V7.64803C40.9419 7.41234 41.0462 7.1863 41.2319 7.01964C41.4177 6.85298 41.6695 6.75936 41.9321 6.75936C42.1948 6.75936 42.4466 6.85298 42.6324 7.01964C42.8181 7.1863 42.9224 7.41234 42.9224 7.64803V10.1053C42.9221 10.3408 42.8176 10.5666 42.6319 10.7331C42.4463 10.8995 42.1946 10.993 41.9321 10.993V10.993ZM41.9321 5.19834C41.8021 5.19841 41.6733 5.17547 41.5531 5.13083C41.4329 5.08619 41.3237 5.02074 41.2318 4.9382C41.1398 4.85567 41.0669 4.75768 41.0171 4.64983C40.9674 4.54198 40.9418 4.42639 40.9419 4.30967V3.20264C40.9419 2.96695 41.0462 2.74091 41.2319 2.57425C41.4177 2.40759 41.6695 2.31396 41.9321 2.31396C42.1948 2.31396 42.4466 2.40759 42.6324 2.57425C42.8181 2.74091 42.9224 2.96695 42.9224 3.20264V4.30967C42.9224 4.54536 42.8181 4.7714 42.6324 4.93805C42.4466 5.10471 42.1948 5.19834 41.9321 5.19834ZM34.8025 12.4921C34.5399 12.4919 34.2881 12.3982 34.1024 12.2316C33.9168 12.065 33.8124 11.839 33.8122 11.6034V9.14709C33.8122 8.9114 33.9166 8.68536 34.1023 8.5187C34.288 8.35205 34.5398 8.25842 34.8025 8.25842C35.0651 8.25842 35.317 8.35205 35.5027 8.5187C35.6884 8.68536 35.7927 8.9114 35.7927 9.14709V11.6039C35.7924 11.8394 35.688 12.0653 35.5023 12.2318C35.3166 12.3983 35.0649 12.4919 34.8025 12.4921V12.4921ZM34.8025 6.6974C34.5399 6.69727 34.2881 6.6036 34.1024 6.43697C33.9168 6.27034 33.8124 6.04438 33.8122 5.80873V4.7017C33.8122 4.46601 33.9166 4.23997 34.1023 4.07331C34.288 3.90666 34.5398 3.81303 34.8025 3.81303C35.0651 3.81303 35.317 3.90666 35.5027 4.07331C35.6884 4.23997 35.7927 4.46601 35.7927 4.7017V5.80873C35.7925 6.04438 35.6882 6.27034 35.5025 6.43697C35.3168 6.6036 35.065 6.69727 34.8025 6.6974V6.6974ZM49.0618 12.4921C48.7992 12.4921 48.5473 12.3984 48.3616 12.2318C48.1759 12.0651 48.0716 11.8391 48.0716 11.6034V9.14709C48.0716 8.9114 48.1759 8.68536 48.3616 8.5187C48.5473 8.35205 48.7992 8.25842 49.0618 8.25842C49.3245 8.25842 49.5763 8.35205 49.762 8.5187C49.9477 8.68536 50.0521 8.9114 50.0521 9.14709V11.6039C50.0519 11.8395 49.9475 12.0654 49.7618 12.2319C49.5761 12.3985 49.3244 12.4921 49.0618 12.4921V12.4921ZM49.0618 6.6974C48.7992 6.6974 48.5473 6.60377 48.3616 6.43712C48.1759 6.27046 48.0716 6.04442 48.0716 5.80873V4.7017C48.0716 4.46601 48.1759 4.23997 48.3616 4.07331C48.5473 3.90666 48.7992 3.81303 49.0618 3.81303C49.3245 3.81303 49.5763 3.90666 49.762 4.07331C49.9477 4.23997 50.0521 4.46601 50.0521 4.7017V5.80873C50.0521 6.04442 49.9477 6.27046 49.762 6.43712C49.5763 6.60377 49.3245 6.6974 49.0618 6.6974V6.6974Z" fill="#F4DD45"/>
<path d="M51.1441 48.4452L52.9435 46.8354C53.0704 47.2784 53.1351 47.7339 53.1359 48.1913C53.1341 49.6184 52.5016 50.9866 51.3772 51.9957C50.2527 53.0049 48.7282 53.5725 47.1379 53.5741H32.8107C32.548 53.5741 32.2962 53.4805 32.1105 53.3138C31.9248 53.1472 31.8204 52.9211 31.8204 52.6854C31.8204 52.4498 31.9248 52.2237 32.1105 52.0571C32.2962 51.8904 32.548 51.7968 32.8107 51.7968H47.1379C48.1541 51.7958 49.1322 51.4496 49.8756 50.8278C50.6191 50.2061 51.0727 49.3548 51.1453 48.4452H51.1441Z" fill="#FEB983"/>
</svg>
