<svg width="65" height="65" viewBox="0 0 65 65" fill="none" xmlns="http://www.w3.org/2000/svg">
<path d="M32.502 41.7854C32.3025 44.1729 32.7223 46.5715 33.7208 48.7494C34.4056 50.2578 35.3572 51.6301 36.5299 52.8002C38.1078 54.3781 40.0417 55.5539 42.1688 56.2285C44.2959 56.9032 46.554 57.0569 48.753 56.6768V62.6775C48.753 63.2932 48.5084 63.8836 48.073 64.319C47.6376 64.7543 47.0471 64.9989 46.4314 64.9989H2.32157C1.72619 65.0177 1.14762 64.7998 0.712505 64.393C0.277394 63.9863 0.0211967 63.4237 0 62.8284V2.17158C0.0211967 1.57634 0.277394 1.01374 0.712505 0.606954C1.14762 0.200165 1.72619 -0.0176754 2.32157 0.00112301H37.1451V9.20527C37.1342 9.51688 37.1862 9.8275 37.298 10.1186C37.4098 10.4097 37.579 10.6753 37.7957 10.8995C38.0124 11.1237 38.272 11.302 38.5591 11.4237C38.8462 11.5454 39.1549 11.6081 39.4667 11.6079H48.753V29.2153C46.8488 28.8866 44.8971 28.9577 43.0218 29.424C41.1466 29.8903 39.3889 30.7416 37.8605 31.9238C36.3321 33.106 35.0664 34.5933 34.1439 36.291C33.2214 37.9888 32.6622 39.8599 32.502 41.7854Z" fill="url(#paint0_linear_371_8407)"/>
<path d="M48.7529 11.6082H39.4666C39.1548 11.6084 38.8461 11.5458 38.559 11.4241C38.2719 11.3024 38.0123 11.1241 37.7956 10.8998C37.5789 10.6756 37.4097 10.41 37.2979 10.1189C37.1861 9.82784 37.1341 9.51722 37.145 9.20561V0.00146484L48.7529 11.6082ZM32.5019 42.9464H10.447C10.1391 42.9464 9.84387 42.8241 9.62618 42.6065C9.40849 42.3888 9.28619 42.0936 9.28619 41.7857C9.28619 41.4779 9.40849 41.1827 9.62618 40.965C9.84387 40.7473 10.1391 40.6251 10.447 40.6251H32.5019C32.8098 40.6251 33.105 40.7473 33.3227 40.965C33.5404 41.1827 33.6627 41.4779 33.6627 41.7857C33.6627 42.0936 33.5404 42.3888 33.3227 42.6065C33.105 42.8241 32.8098 42.9464 32.5019 42.9464ZM33.7672 49.9104H10.447C10.1391 49.9104 9.84387 49.7882 9.62618 49.5705C9.40849 49.3528 9.28619 49.0576 9.28619 48.7498C9.28619 48.4419 9.40849 48.1467 9.62618 47.9291C9.84387 47.7114 10.1391 47.5891 10.447 47.5891H33.7672C34.075 47.5891 34.3703 47.7114 34.588 47.9291C34.8057 48.1467 34.9279 48.4419 34.9279 48.7498C34.9279 49.0576 34.8057 49.3528 34.588 49.5705C34.3703 49.7882 34.075 49.9104 33.7672 49.9104ZM38.3058 56.8745H10.447C10.1391 56.8745 9.84387 56.7522 9.62618 56.5345C9.40849 56.3169 9.28619 56.0217 9.28619 55.7138C9.28619 55.406 9.40849 55.1108 9.62618 54.8931C9.84387 54.6754 10.1391 54.5531 10.447 54.5531H38.3058C38.6137 54.5531 38.9089 54.6754 39.1266 54.8931C39.3443 55.1108 39.4666 55.406 39.4666 55.7138C39.4666 56.0217 39.3443 56.3169 39.1266 56.5345C38.9089 56.7522 38.6137 56.8745 38.3058 56.8745Z" fill="#B4CDE1"/>
<path d="M64.3191 61.192C64.1035 61.4079 63.8475 61.5791 63.5656 61.6959C63.2838 61.8127 62.9817 61.8729 62.6766 61.8729C62.3715 61.8729 62.0694 61.8127 61.7876 61.6959C61.5057 61.5791 61.2497 61.4079 61.0341 61.192L53.3033 53.462L56.5883 50.1772L64.3191 57.9073C64.535 58.1229 64.7062 58.3789 64.823 58.6608C64.9399 58.9426 65 59.2446 65 59.5497C65 59.8548 64.9399 60.1568 64.823 60.4386C64.7062 60.7204 64.535 60.9765 64.3191 61.192Z" fill="url(#paint1_linear_371_8407)"/>
<path d="M56.2865 52.8005C54.9924 54.099 53.4547 55.1293 51.7615 55.8322C50.0684 56.5352 48.2531 56.8971 46.4198 56.8971C44.5865 56.8971 42.7712 56.5352 41.078 55.8322C39.3849 55.1293 37.8472 54.099 36.5531 52.8005C35.3887 51.6285 34.445 50.2564 33.7672 48.7498C32.7089 46.4368 32.3041 43.8782 32.597 41.3516C32.8898 38.825 33.869 36.4267 35.4283 34.4171C36.9877 32.4075 39.0676 30.8632 41.4425 29.9518C43.8173 29.0403 46.3965 28.7966 48.9001 29.2469C51.4037 29.6973 53.7361 30.8245 55.6444 32.5064C57.5527 34.1883 58.964 36.3606 59.7251 38.7876C60.4862 41.2146 60.5681 43.8037 59.9619 46.274C59.3558 48.7443 58.0846 51.0014 56.2865 52.8005Z" fill="url(#paint2_linear_371_8407)"/>
<path d="M46.4313 53.3921C52.201 53.3921 56.8784 48.7153 56.8784 42.9461C56.8784 37.1769 52.201 32.5 46.4313 32.5C40.6615 32.5 35.9842 37.1769 35.9842 42.9461C35.9842 48.7153 40.6615 53.3921 46.4313 53.3921Z" fill="url(#paint3_linear_371_8407)"/>
<path d="M39.3738 16.9701C39.256 16.6865 39.0306 16.4611 38.7469 16.3433C38.6074 16.2839 38.4575 16.2523 38.3058 16.2505H33.6627C33.3548 16.2505 33.0596 16.3728 32.8419 16.5904C32.6242 16.8081 32.5019 17.1033 32.5019 17.4112C32.5019 17.719 32.6242 18.0142 32.8419 18.2319C33.0596 18.4496 33.3548 18.5718 33.6627 18.5718H35.5083L26.1176 27.9617L21.7182 23.5511C21.6103 23.4423 21.4819 23.356 21.3405 23.2971C21.199 23.2381 21.0473 23.2078 20.8941 23.2078C20.7408 23.2078 20.5891 23.2381 20.4476 23.2971C20.3062 23.356 20.1778 23.4423 20.0699 23.5511L9.62282 33.9972C9.51402 34.1051 9.42767 34.2335 9.36874 34.3749C9.30981 34.5163 9.27946 34.6681 9.27946 34.8213C9.27946 34.9745 9.30981 35.1262 9.36874 35.2676C9.42767 35.4091 9.51402 35.5375 9.62282 35.6454C9.73073 35.7541 9.85912 35.8405 10.0006 35.8994C10.142 35.9583 10.2937 35.9887 10.447 35.9887C10.6002 35.9887 10.7519 35.9583 10.8934 35.8994C11.0348 35.8405 11.1632 35.7541 11.2711 35.6454L20.8941 26.0118L25.2934 30.4223C25.4013 30.5311 25.5297 30.6175 25.6712 30.6764C25.8126 30.7353 25.9643 30.7656 26.1176 30.7656C26.2708 30.7656 26.4225 30.7353 26.564 30.6764C26.7055 30.6175 26.8338 30.5311 26.9417 30.4223L37.1451 20.2084V22.0539C37.1451 22.3617 37.2673 22.6569 37.485 22.8746C37.7027 23.0922 37.998 23.2145 38.3058 23.2145C38.6137 23.2145 38.9089 23.0922 39.1266 22.8746C39.3443 22.6569 39.4666 22.3617 39.4666 22.0539V17.4112C39.4648 17.2595 39.4332 17.1096 39.3738 16.9701Z" fill="url(#paint4_linear_371_8407)"/>
<defs>
<linearGradient id="paint0_linear_371_8407" x1="24.3765" y1="64.9989" x2="24.3765" y2="0.00112351" gradientUnits="userSpaceOnUse">
<stop stop-color="#D3E6F5"/>
<stop offset="1" stop-color="#F0F7FC"/>
</linearGradient>
<linearGradient id="paint1_linear_371_8407" x1="53.3033" y1="56.027" x2="64.9924" y2="56.027" gradientUnits="userSpaceOnUse">
<stop stop-color="#54A5FF"/>
<stop offset="1" stop-color="#8AD3FE"/>
</linearGradient>
<linearGradient id="paint2_linear_371_8407" x1="46.4314" y1="56.8745" x2="46.4314" y2="29.0183" gradientUnits="userSpaceOnUse">
<stop stop-color="#54A5FF"/>
<stop offset="1" stop-color="#8AD3FE"/>
</linearGradient>
<linearGradient id="paint3_linear_371_8407" x1="35.9842" y1="42.9461" x2="56.8784" y2="42.9461" gradientUnits="userSpaceOnUse">
<stop stop-color="#D3E6F5"/>
<stop offset="1" stop-color="#F0F7FC"/>
</linearGradient>
<linearGradient id="paint4_linear_371_8407" x1="9.2862" y1="26.1162" x2="39.4666" y2="26.1162" gradientUnits="userSpaceOnUse">
<stop stop-color="#FE9661"/>
<stop offset="1" stop-color="#FFB369"/>
</linearGradient>
</defs>
</svg>
