<svg width="65" height="65" viewBox="0 0 65 65" fill="none" xmlns="http://www.w3.org/2000/svg">
<path d="M33.913 0H2.82609C1.26528 0 0 1.71185 0 3.82353V30.5882C0 32.6999 1.26528 34.4118 2.82609 34.4118H33.913C35.4738 34.4118 36.7391 32.6999 36.7391 30.5882V3.82353C36.7391 1.71185 35.4738 0 33.913 0Z" fill="#6FABE6"/>
<path d="M36.7391 3.82353V28.6765H8.47827C7.35398 28.6765 6.27574 28.0722 5.48075 26.9966C4.68576 25.9211 4.23914 24.4623 4.23914 22.9412V0H33.913C34.6626 0 35.3814 0.402835 35.9114 1.11989C36.4414 1.83694 36.7391 2.80947 36.7391 3.82353Z" fill="#82BCF4"/>
<path d="M65 40.1472V65.0002L59.3479 61.1766C55.2218 60.5458 52.4239 60.6605 49.2305 57.9649C43.3239 52.9943 41.6424 48.2149 39.4805 45.0796C36.9087 41.2561 35.0152 40.2237 29.0663 35.5208C28.4854 35.0661 27.9925 34.4314 27.6283 33.6687C27.264 32.906 27.0389 32.0372 26.9713 31.1338C26.9037 30.2304 26.9956 29.3182 27.2394 28.4723C27.4833 27.6263 27.8721 26.8708 28.3739 26.2678C31.6522 23.3046 32.9381 25.2737 36.7392 28.1796V12.3311C45.7789 14.6487 53.8468 21.4708 59.3479 31.4487C60.9778 34.6333 62.8744 37.5522 65 40.1472Z" fill="#F6CCAF"/>
<path d="M65 40.1472V58.309L60.7608 55.4413C56.6348 54.8105 53.8369 54.9252 50.6435 52.2296C44.7369 47.259 43.0554 42.4796 40.8935 39.3443C35.7782 31.8311 29.4761 31.5443 28.4869 26.1914C28.9429 25.6593 29.4774 25.2648 30.0548 25.034C30.6323 24.8033 31.2394 24.7416 31.8359 24.8531C32.7543 25.0634 32.8532 25.1781 36.7391 28.2369V12.3311C45.7788 14.6487 53.8468 21.4708 59.3478 31.4487C60.9777 34.6333 62.8744 37.5522 65 40.1472Z" fill="#FFDEC7"/>
<path d="M43.5076 35.8075L36.0326 29.9384C35.7118 29.683 35.4784 29.2667 35.3832 28.7798C35.2879 28.293 35.3385 27.775 35.5239 27.3384L36.7391 28.2942V26.3825C37.2619 26.3825 36.7391 26.1148 44.9206 32.481C45.2467 32.7345 45.4849 33.1529 45.583 33.6441C45.681 34.1352 45.6308 34.659 45.4435 35.1001C45.2561 35.5412 44.9469 35.8636 44.5838 35.9962C44.2208 36.1289 43.8336 36.061 43.5076 35.8075Z" fill="#EDB996"/>
<path d="M33.8141 39.2484L32.1043 43.2249C31.7127 44.1341 31.1103 44.843 30.3905 45.2417C29.6707 45.6404 28.8737 45.7065 28.1233 45.4298C27.3728 45.1531 26.7109 44.549 26.2401 43.7114C25.7693 42.8737 25.516 41.8492 25.5196 40.7969C25.5196 39.019 26.0424 38.3116 27.8511 34.4116C28.275 34.4116 28.0489 34.7749 29.0663 35.5587L33.8141 39.2484Z" fill="#F6CCAF"/>
<path d="M31.3696 37.8146L30.6913 39.4013C30.4387 39.9814 30.0986 40.483 29.6933 40.8736C29.2879 41.2642 28.8263 41.5351 28.3386 41.6685C27.8508 41.8019 27.3477 41.795 26.862 41.6481C26.3764 41.5012 25.919 41.2177 25.5196 40.816C25.5196 38.9043 26.0565 38.2734 27.8511 34.4116C28.275 34.4116 28.0489 34.7749 29.0663 35.5587C31.6663 37.6043 31.6805 37.394 31.3696 37.8146Z" fill="#FFDEC7"/>
<path d="M27.9359 34.2397L27.8511 34.4118L27.9359 34.2397ZM39.4804 45.0795L38.9152 46.3986C38.5236 47.3078 37.9212 48.0167 37.2013 48.4154C36.4815 48.8141 35.6846 48.8802 34.9341 48.6035C34.1837 48.3268 33.5217 47.7227 33.051 46.8851C32.5802 46.0474 32.3269 45.0229 32.3304 43.9706C32.3304 42.3456 32.8956 41.4089 33.8141 39.2486C35.9279 40.7555 37.8426 42.7258 39.4804 45.0795Z" fill="#F6CCAF"/>
<path d="M37.5022 42.575C37.2495 43.1551 36.9095 43.6567 36.5041 44.0473C36.0988 44.4379 35.6372 44.7087 35.1494 44.8422C34.6616 44.9756 34.1586 44.9687 33.6729 44.8218C33.1872 44.6749 32.7298 44.3914 32.3304 43.9897C32.3304 42.3074 32.8815 41.4279 33.8141 39.2485C35.119 40.1958 36.354 41.3097 37.5022 42.575Z" fill="#FFDEC7"/>
<path d="M0 9.55859H36.7391V17.2057H0V9.55859Z" fill="#374F68"/>
<path d="M36.7391 9.55859V13.3821H7.06522C6.3157 13.3821 5.59687 12.9793 5.06688 12.2622C4.53688 11.5452 4.23914 10.5727 4.23914 9.55859H36.7391Z" fill="#425B72"/>
<path d="M18.3696 28.6766H5.65218C5.27742 28.6766 4.918 28.4751 4.65301 28.1166C4.38801 27.7581 4.23914 27.2718 4.23914 26.7648C4.23914 26.2578 4.38801 25.7715 4.65301 25.413C4.918 25.0544 5.27742 24.853 5.65218 24.853H18.3696C18.7443 24.853 19.1037 25.0544 19.3687 25.413C19.6337 25.7715 19.7826 26.2578 19.7826 26.7648C19.7826 27.2718 19.6337 27.7581 19.3687 28.1166C19.1037 28.4751 18.7443 28.6766 18.3696 28.6766Z" fill="#EDEBF2"/>
</svg>
