<svg width="65" height="65" viewBox="0 0 65 65" fill="none" xmlns="http://www.w3.org/2000/svg">
<path d="M16.1693 20.4469C14.2361 19.996 12.2893 20.3954 10.7751 21.4003L17.7646 32.326C19.3869 31.4885 20.6577 30.0326 21.1309 28.1902C21.9961 24.7502 19.779 21.2844 16.1693 20.4469Z" fill="#EF5A9D"/>
<path d="M16.1694 20.4463C14.7634 20.1242 13.3439 20.2402 12.1001 20.7169C13.0059 20.5494 13.9658 20.5623 14.9256 20.7942C18.5353 21.6317 20.7524 25.0975 19.8737 28.5375C19.5087 29.9676 18.6705 31.153 17.5619 32.0162L17.7647 32.3254C19.387 31.488 20.6578 30.0321 21.131 28.1896C21.9962 24.7496 19.7791 21.2838 16.1694 20.4463Z" fill="#F06EA9"/>
<path d="M19.3193 30.8445L12.7219 20.5244C12.0324 20.7177 11.37 21.014 10.7751 21.4005L17.7646 32.3262C18.6704 31.8624 19.468 31.2053 20.0629 30.3936C19.8195 30.5611 19.5762 30.7157 19.3193 30.8445Z" fill="#E43D91"/>
<path d="M59.1332 40.585C59.1332 51.6138 47.5337 60.5553 33.2303 60.5553C18.927 60.5553 7.32745 51.6138 7.32745 40.585C7.32745 32.03 14.3034 24.7248 24.1184 21.8903C26.9574 21.0657 30.0263 20.6147 33.2303 20.6147C36.4344 20.6147 39.5168 21.0657 42.3423 21.8903C52.1437 24.7248 59.1332 32.03 59.1332 40.585Z" fill="#EF5A9D"/>
<path d="M24.1052 23.1645C26.9442 22.3399 30.0131 21.889 33.2172 21.889C36.4212 21.889 39.5036 22.3399 42.3291 23.1645C51.8873 25.9346 58.755 32.9435 59.1065 41.2151C59.1201 41.0089 59.1201 40.7899 59.1201 40.5709C59.1201 32.0159 52.1441 24.7106 42.3291 21.8761C39.4901 21.0515 36.4212 20.6006 33.2172 20.6006C30.0131 20.6006 26.9307 21.0515 24.1052 21.8761C14.2902 24.7235 7.3143 32.0159 7.3143 40.5709C7.3143 40.7899 7.3143 40.996 7.32782 41.2151C7.67932 32.9435 14.5471 25.9346 24.1052 23.1645Z" fill="#F06EA9"/>
<path d="M33.2305 21.1938C30.2698 21.1938 27.4984 21.5288 25.1055 22.1215C24.3349 22.3148 23.7941 22.9718 23.7941 23.732C23.7941 24.7885 24.8216 25.5873 25.9031 25.3554C28.1067 24.8787 30.5943 24.6081 33.2305 24.6081C35.8668 24.6081 38.3543 24.8787 40.558 25.3554C41.6395 25.5873 42.667 24.7885 42.667 23.732C42.667 22.9718 42.1262 22.3148 41.3556 22.1215C38.9492 21.5288 36.1777 21.1938 33.2305 21.1938Z" fill="#A72973"/>
<path d="M41.3556 22.1215C38.9627 21.5288 36.1912 21.1938 33.2305 21.1938C30.2698 21.1938 27.4984 21.5288 25.1055 22.1215C24.3349 22.3148 23.7941 22.9718 23.7941 23.732C23.7941 23.9768 23.8482 24.1958 23.9428 24.402C24.1591 23.951 24.5782 23.6032 25.1055 23.4743C27.4984 22.8817 30.2698 22.5467 33.2305 22.5467C36.1912 22.5467 38.9627 22.8817 41.3556 23.4743C41.8828 23.6032 42.3019 23.951 42.5182 24.402C42.6129 24.1958 42.667 23.9639 42.667 23.732C42.667 22.9718 42.1262 22.3019 41.3556 22.1215Z" fill="#E43D91"/>
<path d="M20.2117 64.9866H14.6823C13.5602 64.9866 12.6544 64.1234 12.6544 63.054V51.3037H25.2814L22.1855 63.5049C21.9557 64.381 21.1445 64.9866 20.2117 64.9866Z" fill="#EF5A9D"/>
<path d="M14.0063 63.054V51.3037H12.6544V63.054C12.6544 64.1234 13.5602 64.9866 14.6823 64.9866H16.0342C14.9121 64.9866 14.0063 64.1234 14.0063 63.054Z" fill="#F06EA9"/>
<path d="M23.9563 56.522L22.1853 63.518C21.969 64.3812 21.1443 64.9997 20.2115 64.9997H17.5077C18.4405 64.9997 19.2652 64.3941 19.4815 63.518L21.2525 56.522H23.9563Z" fill="#E43D91"/>
<path d="M46.2354 64.9876H51.7647C52.8868 64.9876 53.7926 64.1243 53.7926 63.0549V51.3047H41.1656L44.2616 63.5059C44.4914 64.382 45.3025 64.9876 46.2354 64.9876Z" fill="#EF5A9D"/>
<path d="M52.4408 51.3047V63.0549C52.4408 64.1243 51.535 64.9876 50.4129 64.9876H51.7648C52.8869 64.9876 53.7927 64.1243 53.7927 63.0549V51.3047H52.4408Z" fill="#F06EA9"/>
<path d="M48.9393 64.9875H46.2355C45.3027 64.9875 44.4915 64.3819 44.2617 63.5058L42.4907 56.5098H45.1945L46.9655 63.5058C47.1954 64.3819 48.0065 64.9875 48.9393 64.9875Z" fill="#E43D91"/>
<path d="M11.4643 48.4828L1.81158 47.3876C0.757079 47.2201 0 46.344 0 45.3391V35.8048C0 34.787 0.770598 33.9238 1.81158 33.7563L11.4643 32.6611V48.4828Z" fill="#EF5A9D"/>
<path d="M1.82519 33.7687C0.770689 33.9362 0.0136108 34.8123 0.0136108 35.8172V37.1056C0.0136108 36.0878 0.784209 35.2246 1.82519 35.0571L8.58481 34.2969C9.39596 34.2067 10.0314 33.6012 10.126 32.8281L1.82519 33.7687Z" fill="#F06EA9"/>
<path d="M0 42.7749V45.3517C0 46.3696 0.770598 47.2328 1.81158 47.4003L11.4643 48.4954L9.86905 45.9186L1.81158 44.8235C0.770598 44.6431 0 43.7799 0 42.7749Z" fill="#E43D91"/>
<path d="M56.6991 35.9073C55.4959 35.9073 54.5225 34.9797 54.5225 33.833C54.5225 32.6863 55.4959 31.7587 56.6991 31.7587C58.8622 31.7587 60.6332 30.0837 60.6332 28.0094C60.6332 26.8627 61.6066 25.9351 62.8098 25.9351C64.013 25.9351 64.9864 26.8627 64.9864 28.0094C64.9999 32.3642 61.2821 35.9073 56.6991 35.9073Z" fill="#EF5A9D"/>
<path d="M63.5264 26.0386C63.6075 26.2447 63.6481 26.4766 63.6481 26.7214C63.6481 31.0762 59.9303 34.6322 55.3473 34.6322C55.1039 34.6322 54.8606 34.5936 54.6307 34.5163C54.9282 35.328 55.7393 35.9206 56.6992 35.9206C61.2687 35.9206 65 32.3775 65 28.0098C65 27.0951 64.3781 26.322 63.5264 26.0386Z" fill="#E43D91"/>
<path d="M45.3978 11.6085V11.9951C45.1815 18.2309 39.8144 23.2171 33.2305 23.2171C26.6331 23.2171 21.266 18.2309 21.0632 11.9951V11.222C21.2795 4.98613 26.6467 0 33.2305 0C39.8279 0 45.1951 4.98613 45.3978 11.222V11.6085Z" fill="#E4F247"/>
<path d="M45.2222 11.7755V12.1492C45.0059 18.2948 39.7199 23.2166 33.2307 23.2166C26.7279 23.2166 21.4419 18.2948 21.2391 12.1492V11.4019C21.4419 5.25618 26.7414 0.334473 33.2307 0.334473C39.7334 0.334473 45.0195 5.25618 45.2222 11.4019V11.7755Z" fill="#E7AD27"/>
<path d="M45.3978 11.6082V11.9947H21.0632V11.2217H45.3978V11.6082Z" fill="#F7CB15"/>
<path d="M45.3976 11.2354H45.2083C45.2083 11.2869 45.2084 11.3513 45.2219 11.4028V11.9955H45.3976V11.2354ZM21.2252 11.7765V11.4028C21.2252 11.3513 21.2252 11.2869 21.2387 11.2354H21.0495V12.0084H21.2252V11.7765Z" fill="#F5F5F5"/>
<path d="M33.23 0.012207H33.6356V23.2035H32.8244V0.012207H33.23Z" fill="#F7CB15"/>
<path d="M32.8244 23.2043H32.8785C32.865 23.2172 32.8379 23.2043 32.8244 23.2043ZM33.23 0.34798C33.3652 0.34798 33.5004 0.347981 33.6356 0.360865V0.0258789H32.8244V0.360865C32.9596 0.347981 33.0948 0.34798 33.23 0.34798ZM33.23 23.2172H33.5004H33.23ZM33.568 23.2172H33.622C33.6085 23.2043 33.5815 23.2172 33.568 23.2172ZM33.23 23.2172H32.9596H33.23Z" fill="#F5F5F5"/>
<path d="M41.8288 19.8155L41.5449 20.0861L24.3349 3.68468L24.6188 3.41412L24.9027 3.14355L42.1127 19.545L41.8288 19.8155Z" fill="#F7CB15"/>
<path d="M41.5179 20.0474L41.5584 20.0861L41.8423 19.8155L42.1262 19.545L42.0857 19.5063C41.8964 19.6996 41.7071 19.8799 41.5179 20.0474ZM25.119 3.3497L24.9027 3.14355L24.6188 3.41412L24.3349 3.68468L24.5377 3.87795C24.727 3.69757 24.9162 3.51719 25.119 3.3497Z" fill="#F5F5F5"/>
<path d="M41.8288 3.40124L42.1127 3.6718L24.9027 20.0861L24.6188 19.8155L24.3349 19.545L41.5449 3.14355C41.6395 3.23374 41.7342 3.31105 41.8288 3.40124Z" fill="#F7CB15"/>
<path d="M41.8964 3.87795L42.0992 3.68468L41.8153 3.41412L41.5314 3.14355L41.3151 3.3497C41.5314 3.51719 41.7206 3.69757 41.8964 3.87795ZM24.3755 19.5063L24.3349 19.545L24.6188 19.8155L24.9027 20.0861L24.9433 20.0474C24.7405 19.8799 24.5512 19.6996 24.3755 19.5063Z" fill="#F5F5F5"/>
<path d="M33.2305 20.7045C38.5018 20.7045 42.775 16.632 42.775 11.6084C42.775 6.58469 38.5018 2.51221 33.2305 2.51221C27.9591 2.51221 23.6859 6.58469 23.6859 11.6084C23.6859 16.632 27.9591 20.7045 33.2305 20.7045Z" fill="#E4F247"/>
<path d="M33.2305 19.8147C37.9866 19.8147 41.8422 16.1402 41.8422 11.6075C41.8422 7.07485 37.9866 3.40039 33.2305 3.40039C28.4743 3.40039 24.6187 7.07485 24.6187 11.6075C24.6187 16.1402 28.4743 19.8147 33.2305 19.8147Z" fill="#F5F5F5"/>
<path d="M36.4613 13.283C36.3126 12.948 36.0963 12.6645 35.8124 12.4197C35.542 12.1878 35.2176 11.9817 34.8526 11.8142C34.5011 11.6596 34.109 11.505 33.6899 11.3761C33.2843 11.2473 32.9463 11.1184 32.6895 10.9896C32.4596 10.8737 32.2704 10.7577 32.1487 10.6289C32.0406 10.5258 31.973 10.4227 31.9324 10.3068C31.8918 10.1779 31.8648 10.0104 31.8648 9.83004C31.8648 9.64967 31.8918 9.48217 31.9594 9.32757C32.0135 9.18584 32.0946 9.057 32.2163 8.95393C32.3245 8.85085 32.4732 8.76066 32.6624 8.69624C32.8517 8.63182 33.0951 8.59317 33.3654 8.59317C33.6223 8.59317 33.8386 8.63182 34.0279 8.70913C34.2171 8.78643 34.3523 8.88951 34.474 9.03123C34.5957 9.17295 34.7038 9.35333 34.7579 9.54659C34.8255 9.76562 34.8661 9.99754 34.8661 10.2681V10.4098C34.8661 10.5902 35.0148 10.7319 35.2041 10.7319H36.2991C36.4884 10.7319 36.6371 10.5902 36.6371 10.4098V10.2681C36.6371 9.80427 36.5695 9.3791 36.4478 8.99258C36.3261 8.60606 36.1234 8.25819 35.88 7.98762C35.6231 7.70417 35.3122 7.47226 34.9607 7.30477C34.839 7.25323 34.7038 7.20169 34.5686 7.15016C34.3659 7.08574 34.2171 6.90536 34.2171 6.69921V6.05501C34.2171 5.87463 34.0684 5.73291 33.8792 5.73291H32.8923C32.703 5.73291 32.5543 5.87463 32.5543 6.05501V6.68633C32.5543 6.90536 32.4056 7.08574 32.1893 7.15016C32.0676 7.18881 31.9459 7.22746 31.8378 7.26612C31.4863 7.40784 31.1753 7.61398 30.9185 7.85878C30.6616 8.10358 30.4588 8.39991 30.3236 8.74778C30.1884 9.08277 30.1208 9.45641 30.1208 9.84293C30.1208 10.281 30.2019 10.6675 30.3506 11.0025C30.4994 11.3375 30.7157 11.6338 30.9996 11.8786C31.27 12.1105 31.5944 12.3167 31.9594 12.4842C32.3109 12.6388 32.703 12.7934 33.1356 12.9222C33.5141 13.0511 33.8251 13.167 34.082 13.2959C34.3118 13.4118 34.4875 13.5278 34.6227 13.6566C34.7444 13.7726 34.8255 13.8756 34.8661 14.0045C34.9201 14.1333 34.9472 14.2879 34.9472 14.4554C34.9472 14.6358 34.9202 14.7904 34.839 14.945C34.7714 15.0867 34.6768 15.2156 34.5551 15.3315C34.4199 15.4475 34.2577 15.5377 34.0549 15.6021C33.8521 15.6794 33.6088 15.7052 33.3249 15.7052C33.1086 15.7052 32.8787 15.6794 32.6489 15.6279C32.4461 15.5763 32.2704 15.499 32.0946 15.3702C31.9324 15.2542 31.8107 15.0996 31.7026 14.8935C31.5944 14.6873 31.5403 14.4168 31.5403 14.0947V13.9529C31.5403 13.7726 31.3916 13.6308 31.2024 13.6308H30.1073C29.918 13.6308 29.7693 13.7726 29.7693 13.9529V14.0947C29.7693 14.6358 29.864 15.1254 30.0397 15.5119C30.229 15.9113 30.4723 16.2463 30.7833 16.504C31.0942 16.7617 31.4457 16.9549 31.8378 17.0709C31.9459 17.1095 32.0406 17.1353 32.1487 17.1611C32.365 17.2126 32.5272 17.4059 32.5272 17.6249V18.1531C32.5272 18.3335 32.676 18.4752 32.8652 18.4752H33.8386C34.0279 18.4752 34.1766 18.3335 34.1766 18.1531V17.5991C34.1766 17.3801 34.3253 17.1997 34.5551 17.1353L34.9201 17.0193C35.2852 16.8776 35.6096 16.6844 35.88 16.4396C36.1504 16.1948 36.3667 15.8984 36.5019 15.5506C36.6371 15.2156 36.7182 14.8419 36.7182 14.4297C36.6912 14.0045 36.6101 13.618 36.4613 13.283Z" fill="#E7AD27"/>
<path d="M36.4616 12.6521C36.3129 12.3171 36.0966 12.0337 35.8127 11.7889C35.5423 11.557 35.2178 11.3508 34.8528 11.1833C34.5013 11.0287 34.1093 10.8741 33.6902 10.7453C33.2846 10.6164 32.9466 10.4876 32.6897 10.3587C32.4599 10.2428 32.2707 10.1268 32.149 9.99799C32.0408 9.89492 31.9732 9.79185 31.9327 9.67589C31.8921 9.54705 31.8651 9.37956 31.8651 9.19918C31.8651 9.01881 31.8921 8.85131 31.9597 8.6967C32.0138 8.55498 32.0949 8.42614 32.2166 8.32306C32.3247 8.21999 32.4734 8.1298 32.6627 8.06538C32.852 8.00096 33.0953 7.96231 33.3657 7.96231C33.6226 7.96231 33.8389 8.00096 34.0282 8.07827C34.2174 8.15557 34.3526 8.25865 34.4743 8.40037C34.596 8.54209 34.7041 8.72247 34.7582 8.91573C34.8258 9.13476 34.8663 9.36667 34.8663 9.63724V9.77897C34.8663 9.95934 35.0151 10.1011 35.2043 10.1011H36.2994C36.4887 10.1011 36.6374 9.95934 36.6374 9.77897V9.63724C36.6374 9.17341 36.5698 8.74824 36.4481 8.36172C36.3264 7.9752 36.1236 7.62733 35.8803 7.35676C35.6234 7.07331 35.3125 6.8414 34.961 6.67391C34.8393 6.62237 34.7041 6.57083 34.5689 6.5193C34.3661 6.45488 34.2174 6.2745 34.2174 6.06836V5.42415C34.2174 5.24378 34.0687 5.10205 33.8794 5.10205H32.8925C32.7033 5.10205 32.5546 5.24378 32.5546 5.42415V6.05547C32.5546 6.2745 32.4058 6.45488 32.1895 6.5193C32.0679 6.55795 31.9462 6.5966 31.838 6.63525C31.4865 6.77698 31.1756 6.98312 30.9187 7.22792C30.6619 7.47272 30.4591 7.76905 30.3239 8.11692C30.1887 8.4519 30.1211 8.82554 30.1211 9.21206C30.1211 9.65012 30.2022 10.0366 30.3509 10.3716C30.4996 10.7066 30.7159 11.003 30.9998 11.2477C31.2702 11.4797 31.5947 11.6858 31.9597 11.8533C32.3112 12.0079 32.7033 12.1625 33.1359 12.2914C33.5144 12.4202 33.8254 12.5362 34.0822 12.665C34.3121 12.781 34.4878 12.8969 34.623 13.0257C34.7447 13.1417 34.8258 13.2448 34.8663 13.3736C34.9204 13.5025 34.9475 13.6571 34.9475 13.8246C34.9475 14.0049 34.9204 14.1595 34.8393 14.3142C34.7717 14.4559 34.6771 14.5847 34.5554 14.7007C34.4202 14.8166 34.258 14.9068 34.0552 14.9712C33.8524 15.0485 33.6091 15.0743 33.3252 15.0743C33.1088 15.0743 32.879 15.0485 32.6492 14.997C32.4464 14.9455 32.2707 14.8682 32.0949 14.7393C31.9327 14.6234 31.811 14.4688 31.7028 14.2626C31.5947 14.0565 31.5406 13.7859 31.5406 13.4638V13.2963C31.5406 13.1159 31.3919 12.9742 31.2026 12.9742H30.1076C29.9183 12.9742 29.7696 13.1159 29.7696 13.2963V13.438C29.7696 13.9792 29.8642 14.4688 30.04 14.8553C30.2292 15.2547 30.4726 15.5897 30.7835 15.8474C31.0945 16.105 31.446 16.2983 31.838 16.4143C31.9462 16.4529 32.0408 16.4787 32.149 16.5044C32.3653 16.556 32.5275 16.7492 32.5275 16.9683V17.4965C32.5275 17.6769 32.6762 17.8186 32.8655 17.8186H33.8389C34.0282 17.8186 34.1769 17.6769 34.1769 17.4965V16.9425C34.1769 16.7235 34.3256 16.5431 34.5554 16.4787L34.9204 16.3627C35.2854 16.221 35.6099 16.0277 35.8803 15.7829C36.1507 15.5381 36.367 15.2418 36.5022 14.8939C36.6374 14.5589 36.7185 14.1853 36.7185 13.773C36.6914 13.3736 36.6103 12.9871 36.4616 12.6521Z" fill="#E5F9E7"/>
<path d="M17.6834 35.7145C18.9228 35.7145 19.9276 34.757 19.9276 33.5758C19.9276 32.3946 18.9228 31.437 17.6834 31.437C16.444 31.437 15.4392 32.3946 15.4392 33.5758C15.4392 34.757 16.444 35.7145 17.6834 35.7145Z" fill="#A72973"/>
<path d="M17.6834 35.1994C18.9228 35.1994 19.9276 34.2418 19.9276 33.0606C19.9276 31.8794 18.9228 30.9219 17.6834 30.9219C16.444 30.9219 15.4392 31.8794 15.4392 33.0606C15.4392 34.2418 16.444 35.1994 17.6834 35.1994Z" fill="#E43D91"/>
<path d="M17.6834 31.6305C18.792 31.6305 19.7248 32.4035 19.9006 33.4214C19.9141 33.3054 19.9276 33.1895 19.9276 33.0606C19.9276 31.8753 18.9272 30.9219 17.6834 30.9219C16.4396 30.9219 15.4392 31.8753 15.4392 33.0606C15.4392 33.1766 15.4527 33.3054 15.4662 33.4214C15.642 32.4035 16.5748 31.6305 17.6834 31.6305Z" fill="#F06EA9"/>
<path d="M33.2303 56.6895C19.7652 56.6895 8.70642 48.7787 7.44913 38.6519C7.36801 39.2832 7.32745 39.9274 7.32745 40.5845C7.32745 51.6132 18.927 60.5548 33.2303 60.5548C47.5337 60.5548 59.1332 51.6132 59.1332 40.5845C59.1332 39.9274 59.0926 39.2832 59.0115 38.6519C57.7407 48.7658 46.682 56.6895 33.2303 56.6895Z" fill="#E43D91"/>
<path d="M62.8098 25.9224C61.6065 25.9224 60.6332 26.85 60.6332 27.9967C60.6332 30.0581 58.8757 31.746 56.6991 31.746C56.3476 31.746 56.0231 31.8233 55.7392 31.965C55.9014 32.1196 56.1989 32.3129 56.645 32.3515C56.7126 32.3644 56.7802 32.3644 56.8343 32.3773H56.8883C59.2407 32.3773 61.1604 30.5477 61.1604 28.3059C61.1604 27.0562 62.2149 26.0512 63.5263 26.0383C63.2964 25.9739 63.0666 25.9224 62.8098 25.9224Z" fill="#F06EA9"/>
</svg>
