<svg width="65" height="65" viewBox="0 0 65 65" fill="none" xmlns="http://www.w3.org/2000/svg">
<path d="M19.0516 31.3787V29.1373C19.0516 28.8401 18.9335 28.555 18.7233 28.3448C18.5132 28.1347 18.2281 28.0166 17.9309 28.0166H6.72399C6.42677 28.0166 6.14171 28.1347 5.93154 28.3448C5.72137 28.555 5.6033 28.8401 5.6033 29.1373V31.3787C5.60525 32.0723 5.8217 32.7484 6.22297 33.3142C6.62425 33.88 7.1907 34.3079 7.84468 34.5391V49.5116C7.1907 49.7428 6.62425 50.1706 6.22297 50.7365C5.8217 51.3022 5.60525 51.9783 5.6033 52.672V54.9134C5.6033 55.2106 5.72137 55.4956 5.93154 55.7058C6.14171 55.916 6.42677 56.0341 6.72399 56.0341H17.9309C18.2281 56.0341 18.5132 55.916 18.7233 55.7058C18.9335 55.4956 19.0516 55.2106 19.0516 54.9134V52.672C19.0496 51.9783 18.8332 51.3022 18.4319 50.7365C18.0306 50.1706 17.4642 49.7428 16.8102 49.5116V34.5391C17.4642 34.3079 18.0306 33.88 18.4319 33.3142C18.8332 32.7484 19.0496 32.0723 19.0516 31.3787ZM39.224 31.3787V29.1373C39.224 28.8401 39.1059 28.555 38.8957 28.3448C38.6856 28.1347 38.4005 28.0166 38.1033 28.0166H26.8964C26.5992 28.0166 26.3141 28.1347 26.104 28.3448C25.8938 28.555 25.7757 28.8401 25.7757 29.1373V31.3787C25.7777 32.0723 25.9941 32.7484 26.3954 33.3142C26.7967 33.88 27.3631 34.3079 28.0171 34.5391V49.5116C27.3631 49.7428 26.7967 50.1706 26.3954 50.7365C25.9941 51.3022 25.7777 51.9783 25.7757 52.672V54.9134C25.7757 55.2106 25.8938 55.4956 26.104 55.7058C26.3141 55.916 26.5992 56.0341 26.8964 56.0341H38.1033C38.4005 56.0341 38.6856 55.916 38.8957 55.7058C39.1059 55.4956 39.224 55.2106 39.224 54.9134V52.672C39.222 51.9783 39.0056 51.3022 38.6043 50.7365C38.203 50.1706 37.6366 49.7428 36.9826 49.5116V34.5391C37.6366 34.3079 38.203 33.88 38.6043 33.3142C39.0056 32.7484 39.222 32.0723 39.224 31.3787ZM59.3964 31.3787V29.1373C59.3964 28.8401 59.2783 28.555 59.0682 28.3448C58.858 28.1347 58.5729 28.0166 58.2757 28.0166H47.0688C46.7716 28.0166 46.4865 28.1347 46.2764 28.3448C46.0662 28.555 45.9481 28.8401 45.9481 29.1373V31.3787C45.9501 32.0723 46.1665 32.7484 46.5678 33.3142C46.9691 33.88 47.5355 34.3079 48.1895 34.5391V49.5116C47.5355 49.7428 46.9691 50.1706 46.5678 50.7365C46.1665 51.3022 45.9501 51.9783 45.9481 52.672V54.9134C45.9481 55.2106 46.0662 55.4956 46.2764 55.7058C46.4865 55.916 46.7716 56.0341 47.0688 56.0341H58.2757C58.5729 56.0341 58.858 55.916 59.0682 55.7058C59.2783 55.4956 59.3964 55.2106 59.3964 54.9134V52.672C59.3944 51.9783 59.178 51.3022 58.7767 50.7365C58.3755 50.1706 57.809 49.7428 57.155 49.5116V34.5391C57.809 34.3079 58.3755 33.88 58.7767 33.3142C59.178 32.7484 59.3944 32.0723 59.3964 31.3787Z" fill="#D7E9F7"/>
<path d="M60.1026 20.4298L37.1845 1.66926C35.862 0.589666 34.2072 0 32.5 0C30.7929 0 29.1381 0.589666 27.8156 1.66926L4.89746 20.4298C4.7183 20.5759 4.58873 20.774 4.52653 20.9967C4.46434 21.2194 4.47255 21.4559 4.55005 21.6737C4.62836 21.8903 4.7715 22.0775 4.95999 22.2099C5.14849 22.3422 5.37318 22.4133 5.6035 22.4134H59.3966C59.6269 22.4133 59.8516 22.3422 60.0401 22.2099C60.2286 22.0775 60.3717 21.8903 60.45 21.6737C60.5275 21.4559 60.5358 21.2194 60.4736 20.9967C60.4114 20.774 60.2818 20.5759 60.1026 20.4298Z" fill="url(#paint0_linear_371_8381)"/>
<path d="M60.5172 20.1719H4.48267C2.62585 20.1719 1.12061 21.6771 1.12061 23.534V26.8961C1.12061 28.7529 2.62585 30.2582 4.48267 30.2582H60.5172C62.374 30.2582 63.8792 28.7529 63.8792 26.8961V23.534C63.8792 21.6771 62.374 20.1719 60.5172 20.1719Z" fill="url(#paint1_linear_371_8381)"/>
<path d="M32.9257 10.0859H31.8051C31.6564 10.0859 31.5139 10.0269 31.4088 9.92179C31.3038 9.81671 31.2447 9.67418 31.2447 9.52557C31.2447 9.37695 31.3038 9.23442 31.4088 9.12934C31.5139 9.02425 31.6564 8.96522 31.8051 8.96522H34.7413C35.0385 8.96522 35.3235 8.84714 35.5337 8.63697C35.7439 8.4268 35.862 8.14175 35.862 7.84452C35.862 7.54729 35.7439 7.26224 35.5337 7.05206C35.3235 6.84189 35.0385 6.72382 34.7413 6.72382H33.6206V5.60312C33.6206 5.30589 33.5025 5.02084 33.2923 4.81067C33.0822 4.6005 32.7971 4.48242 32.4999 4.48242C32.2027 4.48242 31.9176 4.6005 31.7074 4.81067C31.4973 5.02084 31.3792 5.30589 31.3792 5.60312V6.72382C30.6361 6.78029 29.9459 7.12964 29.4604 7.695C28.975 8.26036 28.7339 8.99543 28.7904 9.7385C28.8469 10.4816 29.1962 11.1718 29.7616 11.6573C30.3269 12.1428 31.062 12.3838 31.8051 12.3273H32.9257C33.0744 12.3273 33.2169 12.3863 33.322 12.4914C33.4271 12.5965 33.4861 12.739 33.4861 12.8877C33.4861 13.0363 33.4271 13.1788 33.322 13.2839C33.2169 13.389 33.0744 13.448 32.9257 13.448H30.2585C29.9613 13.448 29.6762 13.5661 29.4661 13.7763C29.2559 13.9864 29.1378 14.2715 29.1378 14.5687C29.1378 14.8659 29.2559 15.151 29.4661 15.3612C29.6762 15.5713 29.9613 15.6894 30.2585 15.6894H31.3792V16.8101C31.3792 17.1073 31.4973 17.3924 31.7074 17.6026C31.9176 17.8127 32.2027 17.9308 32.4999 17.9308C32.7971 17.9308 33.0822 17.8127 33.2923 17.6026C33.5025 17.3924 33.6206 17.1073 33.6206 16.8101V15.5885C34.2876 15.4272 34.8718 15.0258 35.2615 14.461C35.6513 13.8961 35.8192 13.2074 35.7332 12.5266C35.6472 11.8457 35.3134 11.2204 34.7955 10.7702C34.2776 10.32 33.6119 10.0763 32.9257 10.0859Z" fill="#F0F7FC"/>
<path d="M59.3965 53.793H5.60345C4.11732 53.793 2.69206 54.3833 1.64121 55.4342C0.590362 56.4851 0 57.9103 0 59.3965V63.8793C0 64.1765 0.118072 64.4615 0.328242 64.6717C0.538412 64.8819 0.823464 65 1.12069 65H63.8793C64.1765 65 64.4616 64.8819 64.6718 64.6717C64.8819 64.4615 65 64.1765 65 63.8793V59.3965C65 57.9103 64.4096 56.4851 63.3588 55.4342C62.3079 54.3833 60.8827 53.793 59.3965 53.793Z" fill="url(#paint2_linear_371_8381)"/>
<defs>
<linearGradient id="paint0_linear_371_8381" x1="18.2561" y1="35.5368" x2="46.7442" y2="7.04884" gradientUnits="userSpaceOnUse">
<stop stop-color="#54A5FF"/>
<stop offset="1" stop-color="#8AD3FE"/>
</linearGradient>
<linearGradient id="paint1_linear_371_8381" x1="32.4999" y1="30.2582" x2="32.4999" y2="20.1719" gradientUnits="userSpaceOnUse">
<stop stop-color="#54A5FF"/>
<stop offset="1" stop-color="#8AD3FE"/>
</linearGradient>
<linearGradient id="paint2_linear_371_8381" x1="32.5" y1="65" x2="32.5" y2="53.793" gradientUnits="userSpaceOnUse">
<stop stop-color="#54A5FF"/>
<stop offset="1" stop-color="#8AD3FE"/>
</linearGradient>
</defs>
</svg>
