<svg width="66" height="65" viewBox="0 0 66 65" fill="none" xmlns="http://www.w3.org/2000/svg">
<path d="M33.5186 19.7294C33.5186 19.7294 47.4748 27.3502 48.2401 43.5489C48.4384 47.2031 47.43 50.8213 45.3701 53.8461C43.3102 56.8709 40.3131 59.1348 36.8402 60.2889C33.5532 61.3199 30.1247 61.8289 26.6799 61.7971C23.2351 61.8289 19.8066 61.3199 16.5196 60.2889C13.0467 59.1348 10.0496 56.8709 7.98967 53.8461C5.92976 50.8213 4.92134 47.2031 5.11969 43.5489C5.88497 27.3497 19.8412 19.7294 19.8412 19.7294H33.5186ZM33.5186 15.8701L37.8289 6.19775C37.8289 6.19775 34.0117 3.20166 26.6799 3.20166C19.3481 3.20166 15.5309 6.19775 15.5309 6.19775L19.8412 15.8701H33.5186Z" fill="#64D465"/>
<path d="M35.9465 48.8343C40.4038 43.7164 39.8682 35.9542 34.7503 31.4969C29.6324 27.0396 21.8701 27.5752 17.4129 32.6931C12.9556 37.8111 13.4912 45.5733 18.6091 50.0306C23.727 54.4878 31.4893 53.9522 35.9465 48.8343Z" fill="#F4DD45"/>
<path d="M32.911 46.4406C36.0465 42.9993 35.7986 37.6677 32.3573 34.5321C28.916 31.3966 23.5843 31.6445 20.4488 35.0858C17.3132 38.5271 17.5611 43.8588 21.0025 46.9943C24.4438 50.1299 29.7754 49.882 32.911 46.4406Z" fill="#FCC101"/>
<path d="M19.8412 15.8701H33.5191V19.7295H19.8412V15.8701Z" fill="#477B9E"/>
<path d="M59.352 26.0273H37.1423C36.0197 26.0273 35.1096 26.9374 35.1096 28.0601V59.7644C35.1096 60.887 36.0197 61.7971 37.1423 61.7971H59.352C60.4747 61.7971 61.3848 60.887 61.3848 59.7644V28.0601C61.3848 26.9374 60.4747 26.0273 59.352 26.0273Z" fill="#477B9E"/>
<path d="M38.679 29.6016H57.8159V36.8135H38.679V29.6016Z" fill="#DBEDFF"/>
<path d="M46.2144 40.3823H50.2805V43.9517H46.2144V40.3823ZM53.7499 40.3823H57.8159V43.9517H53.7499V40.3823ZM38.679 40.3823H42.7451V43.9517H38.679V40.3823ZM46.2144 47.5206H50.2805V51.0901H46.2144V47.5206Z" fill="#F4DD45"/>
<path d="M53.7499 47.5205H57.8159V58.2277H53.7499V47.5205Z" fill="#F87C68"/>
<path d="M38.679 47.5204H42.745V51.0898H38.679V47.5204ZM46.2144 54.6587H50.2805V58.2276H46.2144V54.6587ZM38.679 54.6587H42.745V58.2276H38.679V54.6587ZM27.371 45.8406V46.7627H26.0604V45.7979C24.8056 45.6562 23.6294 45.116 22.7042 44.2567L23.7417 42.9745C24.388 43.5899 25.1895 44.0182 26.0604 44.2135V41.4038C24.2886 40.9432 23.0932 40.3095 23.0932 38.6108C23.0932 37.0549 24.2886 35.8595 26.0604 35.6432V34.7646H27.371V35.6579C28.4954 35.7739 29.5543 36.2426 30.3961 36.997L29.417 38.3224C28.8355 37.7977 28.1323 37.4265 27.371 37.2423V39.9494C29.3449 40.3958 30.6555 41.0727 30.6555 42.8302C30.6555 44.4867 29.4602 45.6968 27.371 45.8406ZM26.0604 39.6036V37.2123C25.7566 37.2583 25.4773 37.4058 25.2681 37.6308C25.0588 37.8558 24.932 38.145 24.9081 38.4514C24.9081 39.0272 25.2829 39.3299 26.0604 39.6036ZM28.8533 43.0029C28.8533 42.3402 28.3927 42.038 27.3695 41.7334V44.2973C28.3511 44.1841 28.8548 43.6366 28.8548 43.0029H28.8533Z" fill="#F4DD45"/>
</svg>
