<svg width="131" height="132" viewBox="0 0 131 132" fill="none" xmlns="http://www.w3.org/2000/svg">
<path d="M76.9544 53.5083V91.5923H39.0118C32.2724 91.5887 25.6504 93.3387 19.8096 96.6668C13.9688 99.9949 9.11448 104.784 5.73314 110.555C5.59489 110.798 4.81053 112.23 4.81053 112.23C2.07939 117.447 0 130.207 0 130.207V92.1201C0 91.947 0 91.7654 0 91.5923C0.000748189 81.492 4.05467 71.8056 11.2701 64.6637C18.4856 57.5217 28.2716 53.509 38.4758 53.5083H76.9544Z" fill="#38A3A5"/>
<path d="M115.43 1.13965V39.2236H39.0118C32.2722 39.2206 25.6501 40.9712 19.8094 44.2998C13.9686 47.6283 9.11435 52.4181 5.73314 58.1888C5.59489 58.4318 4.81053 59.8645 4.81053 59.8645C2.07939 65.0924 0 77.8382 0 77.8382V39.7542C0 39.5783 0 39.3996 0 39.2236C0.00149618 29.1236 4.05566 19.4376 11.2709 12.2958C18.4862 5.15401 28.2718 1.14113 38.4758 1.13965H115.43Z" fill="#38A3A5"/>
<path d="M115.43 1.1397V39.2237H42.9618C32.8667 38.9612 22.1763 42.1337 16.1582 46.6718C15.7491 46.9818 15.3344 47.2918 14.9337 47.6102C14.8745 47.6632 14.8124 47.7107 14.7475 47.7638C14.5867 47.8894 14.4315 48.0151 14.2763 48.1491C13.6838 48.6407 13.1055 49.1545 12.5412 49.6768C12.3098 49.8946 12.0869 50.1152 11.8612 50.333L11.2969 50.9195C9.16359 53.1129 7.3024 55.5505 5.75282 58.1805C5.61457 58.4235 4.83021 59.8561 4.83021 59.8561C4.61014 60.2778 4.39572 60.7442 4.18129 61.2525C3.85118 62.0512 3.52953 62.9504 3.22482 63.9027C3.21696 63.9228 3.21037 63.9433 3.20507 63.9642C2.55609 65.7846 2.05049 67.6519 1.69279 69.5496C1.67022 69.639 1.65046 69.7283 1.62789 69.8289C2.60693 50.28 18.5564 34.2359 38.4955 33.9595H100.767C100.969 31.579 102.067 29.3605 103.844 27.744C105.621 26.1274 107.947 25.2309 110.36 25.2323C110.45 25.2323 110.538 25.2323 110.642 25.2323V15.1786C108.179 15.1128 105.836 14.1136 104.095 12.3873C102.355 10.661 101.35 8.33929 101.289 5.90125H43.1677C29.6588 5.10812 11.8104 12.7769 4.47753 23.6265C4.24336 23.9756 4.00918 24.3302 3.78347 24.6821C2.89358 26.0924 2.09264 27.5557 1.38525 29.0639C1.73495 27.8053 2.15026 26.5656 2.6295 25.3496C5.29525 19.269 9.42073 13.9247 14.6475 9.78096C19.8743 5.63726 26.0442 2.81952 32.6213 1.57257C34.5574 1.26967 36.5155 1.12489 38.4757 1.1397H115.43Z" fill="#22577A" stroke="#22577A" stroke-miterlimit="10"/>
<path d="M77.0249 53.3633L76.9544 92.1203H42.7531C41.475 92.1203 39.9937 92.0784 38.4758 92.1203C38.4335 92.1175 38.3911 92.1175 38.3488 92.1203H38.2952C34.4664 92.1889 30.6693 92.8224 27.0293 93.9998L26.939 94.0249C13.825 98.1469 4.05159 108.566 1.60259 122.267C2.5393 102.674 18.5114 86.5768 38.4758 86.3171H64.4019C64.4673 84.3037 65.3034 82.3901 66.7409 80.9641C68.1785 79.5381 70.1099 78.7063 72.1439 78.6372V66.2097C70.0182 66.2089 67.9798 65.3728 66.4768 63.885C64.9737 62.3973 64.1289 60.3796 64.1282 58.2756H43.1678C41.6302 58.1025 40.0643 58.2756 38.4758 58.2756C23.8439 58.2756 11.0092 65.6232 3.77226 77.0649C3.0312 78.2156 2.36403 79.4114 1.7747 80.6451C1.70981 80.768 1.65056 80.8937 1.59131 81.0221C1.86833 79.9066 2.21124 78.8081 2.6183 77.7323C5.28364 71.6515 9.409 66.3069 14.6358 62.1632C19.8627 58.0194 26.0328 55.2018 32.6101 53.9553C34.5461 53.6506 36.5042 53.5039 38.4645 53.5169L77.0249 53.3633Z" fill="#22577A"/>
<path d="M43.2862 79.427C50.3699 79.427 56.1124 76.585 56.1124 73.0792C56.1124 69.5735 50.3699 66.7314 43.2862 66.7314C36.2024 66.7314 30.46 69.5735 30.46 73.0792C30.46 76.585 36.2024 79.427 43.2862 79.427Z" fill="#22577A"/>
<path d="M58.7842 26.0001C66.753 26.0001 73.213 22.803 73.213 18.8592C73.213 14.9154 66.753 11.7183 58.7842 11.7183C50.8154 11.7183 44.3555 14.9154 44.3555 18.8592C44.3555 22.803 50.8154 26.0001 58.7842 26.0001Z" fill="#22577A"/>
<path d="M129.785 96.9794C129.784 104.626 127.181 112.049 122.396 118.051C117.611 124.054 110.923 128.287 103.411 130.066C95.898 131.846 87.9987 131.069 80.9866 127.861C73.9745 124.653 68.2583 119.201 64.76 112.384L64.3848 111.155V110.446C64.384 109.917 64.4888 109.393 64.6931 108.905C64.8973 108.416 65.1971 107.972 65.5751 107.599C65.9531 107.225 66.4019 106.929 66.8959 106.727C67.3898 106.526 67.919 106.423 68.4533 106.424C70.0756 106.424 71.08 106.896 72.0336 108.315L72.2678 108.667C74.2897 112.757 77.3803 116.236 81.219 118.745C85.0577 121.254 89.5047 122.701 94.0987 122.935C98.6926 123.169 103.266 122.182 107.345 120.076C111.423 117.97 114.859 114.823 117.294 110.96C119.729 107.098 121.076 102.66 121.194 98.1085C121.313 93.5569 120.199 89.0567 117.968 85.075C115.736 81.0932 112.47 77.7749 108.506 75.4643C104.542 73.1537 100.026 71.9349 95.4261 71.9345C95.2624 71.9345 95.1045 71.9345 94.9464 71.9345C93.7838 71.877 92.688 71.3794 91.8856 70.5446C91.0833 69.7098 90.6358 68.6017 90.6358 67.4494C90.6358 66.2972 91.0833 65.189 91.8856 64.3542C92.688 63.5194 93.7838 63.0218 94.9464 62.9644H95.4261C104.539 62.9681 113.277 66.5531 119.72 72.9316C126.163 79.31 129.783 87.9597 129.785 96.9794Z" fill="#22577A"/>
<path d="M129.168 90.4722H129.193C130.955 99.2414 129.159 108.345 124.192 115.813C119.226 123.281 111.489 128.514 102.655 130.38L102.418 130.441L102.184 130.486C101.159 130.643 100.113 130.406 99.2588 129.823C98.4052 129.241 97.8089 128.357 97.5924 127.354C97.3759 126.35 97.5556 125.302 98.0945 124.426C98.6334 123.549 99.4907 122.91 100.491 122.638C100.646 122.616 100.804 122.583 100.959 122.549C107.645 121.136 113.49 117.153 117.209 111.475C120.928 105.796 122.216 98.8889 120.791 92.2707H120.819C120.768 92.1206 120.726 91.9677 120.692 91.8127C120.469 90.7323 120.679 89.6085 121.278 88.6783C121.876 87.7481 122.816 87.0842 123.899 86.8266C124.982 86.5691 126.124 86.738 127.084 87.2978C128.044 87.8576 128.746 88.7644 129.044 89.8271C129.063 89.8941 129.077 89.964 129.094 90.0394C129.127 90.1821 129.152 90.3267 129.168 90.4722Z" fill="#38A5A3" stroke="#38A5A3" stroke-miterlimit="10"/>
</svg>
