<svg width="30" height="30" viewBox="0 0 30 30" fill="none" xmlns="http://www.w3.org/2000/svg">
<path d="M17.1626 4.3873L19.3626 8.78731C19.6626 9.39981 20.4626 9.9873 21.1376 10.0998L25.1251 10.7623C27.6751 11.1873 28.2751 13.0373 26.4376 14.8623L23.3376 17.9623C22.8126 18.4873 22.5251 19.4998 22.6876 20.2248L23.5751 24.0623C24.2751 27.0998 22.6626 28.2748 19.9751 26.6873L16.2376 24.4748C15.5626 24.0748 14.4501 24.0748 13.7626 24.4748L10.0251 26.6873C7.35013 28.2748 5.72513 27.0873 6.42513 24.0623L7.31263 20.2248C7.47513 19.4998 7.18763 18.4873 6.66263 17.9623L3.56263 14.8623C1.73763 13.0373 2.32513 11.1873 4.87513 10.7623L8.86263 10.0998C9.52513 9.9873 10.3251 9.39981 10.6251 8.78731L12.8251 4.3873C14.0251 1.9998 15.9751 1.9998 17.1626 4.3873V4.3873Z" stroke="#202129" stroke-width="2" stroke-linecap="round" stroke-linejoin="round"/>
<circle cx="21" cy="6" r="5" fill="#FF7474" stroke="#F9F9FB" stroke-width="2"/>
<g clip-path="url(#clip0_863_11594)">
<path d="M21.7683 3.82832C21.7683 3.82834 21.7679 3.82898 21.7672 3.83018C21.7679 3.82891 21.7683 3.82831 21.7683 3.82832ZM20.528 5.77314C20.6783 5.66167 20.8494 5.50625 20.9983 5.30321C21.1477 5.5069 21.3198 5.66299 21.4719 5.77521C21.5928 5.86441 21.7419 5.95607 21.915 6.03121C21.7715 6.24537 21.6808 6.46674 21.6258 6.65874C21.5952 6.76575 21.5694 6.88557 21.5538 7.01461C21.3563 6.96473 21.1668 6.94655 21.0012 6.94655C20.8337 6.94655 20.6436 6.96515 20.4462 7.01505C20.4306 6.88585 20.4048 6.76587 20.3741 6.65874C20.3191 6.46656 20.2282 6.24496 20.0845 6.03062C20.2586 5.95467 20.4079 5.86216 20.528 5.77314ZM23.122 7.84241C23.1221 7.84246 23.1206 7.84188 23.1178 7.84049C23.1206 7.84166 23.122 7.84235 23.122 7.84241ZM21.8315 8.78882C21.8315 8.7888 21.8312 8.78718 21.831 8.78404C21.8315 8.78728 21.8316 8.78885 21.8315 8.78882ZM18.8777 7.84279C18.8777 7.84273 18.8791 7.84201 18.8821 7.8408C18.8791 7.84224 18.8776 7.84285 18.8777 7.84279ZM20.1691 8.78284C20.1688 8.78603 20.1686 8.78768 20.1685 8.7877C20.1685 8.78772 20.1686 8.78612 20.1691 8.78284ZM20.226 3.82342C20.226 3.82342 20.2262 3.82378 20.2267 3.82456L20.226 3.82342Z" stroke="#FFB300" stroke-width="3" stroke-linecap="round" stroke-linejoin="round"/>
</g>
<defs>
<clipPath id="clip0_863_11594">
<rect width="8" height="8" fill="white" transform="translate(17 2)"/>
</clipPath>
</defs>
</svg>
