<svg width="30" height="30" viewBox="0 0 30 30" fill="none" xmlns="http://www.w3.org/2000/svg">
<path fill-rule="evenodd" clip-rule="evenodd" d="M10.0001 22.5H5.00011C4.43242 22.5 3.93601 22.1174 3.79137 21.5685C3.64673 21.0195 3.89018 20.442 4.38417 20.1623C4.89505 19.873 5.33087 19.4678 5.65654 18.9793C5.96926 18.5102 6.17202 17.9769 6.25011 17.4192V13.75C6.25011 13.7305 6.25057 13.7109 6.25149 13.6914C6.33658 11.8786 6.91335 10.1232 7.91999 8.61325C8.79556 7.29989 9.96765 6.2153 11.3376 5.44465C11.4902 4.75074 11.8382 4.1086 12.3485 3.59835C13.0517 2.89509 14.0056 2.5 15.0001 2.5C15.9947 2.5 16.9485 2.89509 17.6518 3.59835C18.162 4.1086 18.51 4.75074 18.6626 5.44465C20.0326 6.2153 21.2047 7.29989 22.0802 8.61325C23.0869 10.1232 23.6637 11.8786 23.7487 13.6914C23.7497 13.7109 23.7501 13.7305 23.7501 13.75V17.4192C23.8282 17.9769 24.031 18.5102 24.3437 18.9793C24.6694 19.4678 25.1052 19.873 25.6161 20.1623C26.11 20.442 26.3535 21.0195 26.2089 21.5685C26.0642 22.1174 25.5678 22.5 25.0001 22.5H20.0001C20.0001 23.8261 19.4733 25.0979 18.5356 26.0355C17.598 26.9732 16.3262 27.5 15.0001 27.5C13.674 27.5 12.4023 26.9732 11.4646 26.0355C10.5269 25.0979 10.0001 23.8261 10.0001 22.5ZM14.1162 5.36612C14.3507 5.1317 14.6686 5 15.0001 5C15.3316 5 15.6496 5.1317 15.884 5.36612C16.1184 5.60054 16.2501 5.91848 16.2501 6.25C16.2501 6.73337 16.5288 7.17341 16.9658 7.38004C18.1962 7.96185 19.2451 8.86753 20.0001 10C20.7499 11.1247 21.1817 12.4309 21.2501 13.7805V17.5C21.2501 17.5502 21.2531 17.6004 21.2592 17.6502C21.3595 18.4789 21.6246 19.2777 22.0373 20H7.96288C8.37562 19.2777 8.64074 18.4789 8.74106 17.6502C8.74709 17.6004 8.75011 17.5502 8.75011 17.5V13.7804C8.81854 12.4309 9.25035 11.1247 10.0001 10C10.7503 8.87468 11.7908 7.97329 13.0112 7.39109C13.0708 7.36435 13.1279 7.33308 13.1822 7.2977C13.3363 7.19766 13.4624 7.06748 13.5563 6.91886C13.6856 6.71419 13.7539 6.47453 13.7503 6.23043C13.7553 5.90599 13.8864 5.59592 14.1162 5.36612ZM17.5001 22.5C17.5001 23.163 17.2367 23.7989 16.7679 24.2678C16.299 24.7366 15.6632 25 15.0001 25C14.3371 25 13.7012 24.7366 13.2323 24.2678C12.7635 23.7989 12.5001 23.163 12.5001 22.5H17.5001Z" fill="#202129"/>
<circle cx="22" cy="11" r="6" fill="#FF7474" stroke="#F9F9FB" stroke-width="2"/>
<path opacity="0.8" d="M21.8477 13.4287V8.14871L22.1917 8.52471H20.5837V7.82871H22.6397V13.4287H21.8477Z" fill="#202129"/>
</svg>
