<svg width="32" height="33" viewBox="0 0 32 33" fill="none" xmlns="http://www.w3.org/2000/svg">
<path fill-rule="evenodd" clip-rule="evenodd" d="M16.0004 6.70142C14.9531 6.70142 13.9161 6.9077 12.9485 7.30848C11.9809 7.70926 11.1018 8.29669 10.3612 9.03724C9.62066 9.77779 9.03323 10.6569 8.63245 11.6245C8.23166 12.5921 8.02538 13.6291 8.02538 14.6764C8.02538 19.2921 7.0576 22.0718 6.12891 23.6764H25.8719C24.9432 22.0718 23.9754 19.2921 23.9754 14.6764C23.9754 13.6291 23.7691 12.5921 23.3683 11.6245C22.9675 10.6569 22.3801 9.77779 21.6396 9.03724C20.899 8.29669 20.0199 7.70926 19.0523 7.30848C18.0847 6.9077 17.0477 6.70142 16.0004 6.70142ZM12.1831 5.46072C13.3933 4.95943 14.6904 4.70142 16.0004 4.70142C17.3103 4.70142 18.6074 4.95943 19.8177 5.46072C21.0279 5.96201 22.1275 6.69676 23.0538 7.62303C23.98 8.54929 24.7148 9.64893 25.2161 10.8591C25.7174 12.0694 25.9754 13.3665 25.9754 14.6764C25.9754 19.0098 26.8822 21.4298 27.6033 22.6754L27.6039 22.6764C27.7791 22.9799 27.8715 23.3242 27.8719 23.6747C27.8722 24.0251 27.7804 24.3695 27.6057 24.6734C27.431 24.9772 27.1795 25.2298 26.8764 25.4058C26.5734 25.5819 26.2294 25.6752 25.8789 25.6764L25.8754 25.6764H6.12538L6.12186 25.6764C5.77139 25.6752 5.42739 25.5819 5.12433 25.4058C4.82127 25.2298 4.5698 24.9772 4.39509 24.6734C4.22039 24.3695 4.1286 24.0251 4.12891 23.6747C4.12922 23.3242 4.22162 22.9799 4.39686 22.6764L4.39746 22.6754C5.11858 21.4298 6.02538 19.0098 6.02538 14.6764C6.02538 13.3665 6.2834 12.0694 6.78469 10.8591C7.28598 9.64893 8.02073 8.54929 8.94699 7.62303C9.87326 6.69676 10.9729 5.96201 12.1831 5.46072Z" fill="#333333"/>
<path fill-rule="evenodd" clip-rule="evenodd" d="M12 23.6765C12.5523 23.6765 13 24.1242 13 24.6765V25.6765C13 26.4722 13.3161 27.2352 13.8787 27.7978C14.4413 28.3604 15.2044 28.6765 16 28.6765C16.7956 28.6765 17.5587 28.3604 18.1213 27.7978C18.6839 27.2352 19 26.4722 19 25.6765V24.6765C19 24.1242 19.4477 23.6765 20 23.6765C20.5523 23.6765 21 24.1242 21 24.6765V25.6765C21 27.0026 20.4732 28.2744 19.5355 29.212C18.5979 30.1497 17.3261 30.6765 16 30.6765C14.6739 30.6765 13.4021 30.1497 12.4645 29.212C11.5268 28.2744 11 27.0026 11 25.6765V24.6765C11 24.1242 11.4477 23.6765 12 23.6765Z" fill="#333333"/>
</svg>
