<svg width="28" height="28" viewBox="0 0 28 28" fill="none" xmlns="http://www.w3.org/2000/svg">
<path d="M27.7842 26.7422C27.8526 26.8106 27.9069 26.8919 27.9439 26.9813C27.981 27.0707 28 27.1665 28 27.2632C28 27.36 27.9809 27.4558 27.9439 27.5452C27.9069 27.6346 27.8526 27.7158 27.7841 27.7842C27.7157 27.8526 27.6345 27.9069 27.5451 27.9439C27.4557 27.981 27.3599 28 27.2631 28C27.1663 28 27.0705 27.9809 26.9811 27.9439C26.8918 27.9069 26.8105 27.8526 26.7421 27.7841L14 15.0421L1.25789 27.7841C1.11972 27.9223 0.932309 28 0.736891 28C0.541472 28 0.35405 27.9224 0.215857 27.7842C0.0776627 27.6461 1.69304e-05 27.4587 2.76838e-09 27.2632C-1.69249e-05 27.0678 0.0775967 26.8804 0.215767 26.7422L12.9579 14L0.215767 1.2578C0.0775967 1.1196 -1.69249e-05 0.932181 2.76838e-09 0.736763C8.38449e-06 0.640001 0.0190752 0.544189 0.056112 0.454796C0.0931487 0.365404 0.14743 0.284181 0.215857 0.215767C0.284283 0.147352 0.365515 0.0930847 0.454914 0.0560635C0.544313 0.0190422 0.640129 -8.37895e-06 0.736891 2.76458e-09C0.932309 1.69304e-05 1.11972 0.0776627 1.25789 0.215857L14 12.9579L26.7421 0.215857C26.8105 0.14743 26.8918 0.0931487 26.9811 0.056112C27.0705 0.0190752 27.1663 8.38448e-06 27.2631 2.76458e-09C27.3599 -8.37895e-06 27.4557 0.0190422 27.5451 0.0560635C27.6345 0.0930847 27.7157 0.147352 27.7841 0.215767C27.8526 0.284181 27.9069 0.365404 27.9439 0.454796C27.9809 0.544189 28 0.640001 28 0.736763C28 0.833524 27.981 0.92934 27.9439 1.01874C27.9069 1.10814 27.8526 1.18937 27.7842 1.2578L15.0421 14L27.7842 26.7422Z" fill="black"/>
</svg>
