<svg width="20" height="20" viewBox="0 0 20 20" fill="none" xmlns="http://www.w3.org/2000/svg">
<path fill-rule="evenodd" clip-rule="evenodd" d="M10 20C15.5228 20 20 15.5228 20 10C20 4.47715 15.5228 0 10 0C4.47715 0 0 4.47715 0 10C0 15.5228 4.47715 20 10 20ZM10.8716 16.2046L17.3002 4.77599L15.5571 3.79546L9.83358 13.9706C9.5992 13.6944 9.33458 13.383 9.05678 13.0569C8.13316 11.9726 7.05396 10.7134 6.4604 10.0484L4.96831 11.3802C5.54358 12.0247 6.60724 13.2655 7.53426 14.3538C7.9962 14.8961 8.42174 15.3976 8.73182 15.7636L9.10032 16.1989L9.20101 16.318L9.22721 16.349L9.23388 16.3569L9.23555 16.3589L9.23596 16.3594L9.23606 16.3595L10.0001 15.7143L9.23609 16.3595L10.1655 17.46L10.8716 16.2046Z" fill="#132D46"/>
</svg>
