<svg width="75" height="75" viewBox="0 0 75 75" fill="none" xmlns="http://www.w3.org/2000/svg">
<path d="M28.125 25.7812H46.875V32.8125H28.125V25.7812Z" fill="#68C7D3"/>
<path d="M37.5 72.6562C49.1498 72.6562 58.5938 63.2123 58.5938 51.5625C58.5938 39.9127 49.1498 30.4688 37.5 30.4688C25.8502 30.4688 16.4062 39.9127 16.4062 51.5625C16.4062 63.2123 25.8502 72.6562 37.5 72.6562Z" fill="#D1E6E9"/>
<path d="M37.5 65.625C45.2665 65.625 51.5625 59.329 51.5625 51.5625C51.5625 43.796 45.2665 37.5 37.5 37.5C29.7335 37.5 23.4375 43.796 23.4375 51.5625C23.4375 59.329 29.7335 65.625 37.5 65.625Z" fill="#A1D8DF"/>
<path d="M37.5 44.8826L39.6328 49.3357L44.5312 49.9919L40.9453 53.3904L41.8359 58.2419L37.5 55.8748L33.1641 58.2419L34.0547 53.3904L30.4688 49.9919L35.3672 49.3357L37.5 44.8826Z" fill="#30ACC2"/>
<path d="M32.8125 2.34375H42.1875V25.7812H32.8125V2.34375Z" fill="#A1D8DF"/>
<path d="M32.8125 25.7812H28.125L23.4375 21.0938V2.34375H32.8125V25.7812ZM42.1875 25.7812H46.875L51.5625 21.0938V2.34375H42.1875V25.7812Z" fill="#30ACC2"/>
</svg>
