<svg width="307" height="186" viewBox="0 0 307 186" fill="none" xmlns="http://www.w3.org/2000/svg">
<path opacity="0.5" d="M297.807 0H32.5835C27.7545 0 23.8398 3.63402 23.8398 8.11682V156.028C23.8398 160.511 27.7545 164.145 32.5835 164.145H297.807C302.636 164.145 306.551 160.511 306.551 156.028V8.11682C306.551 3.63402 302.636 0 297.807 0Z" fill="#37A3A5"/>
<path opacity="0.5" d="M306.551 26.9099H23.8398V61.8915H306.551V26.9099Z" fill="#37A3A5"/>
<path d="M274.49 21.5242H9.2661C4.43712 21.5242 0.522461 25.1582 0.522461 29.641V177.552C0.522461 182.035 4.43712 185.669 9.2661 185.669H274.49C279.319 185.669 283.233 182.035 283.233 177.552V29.641C283.233 25.1582 279.319 21.5242 274.49 21.5242Z" fill="#37A3A5"/>
<mask id="mask0_502_11872" style="mask-type:alpha" maskUnits="userSpaceOnUse" x="0" y="21" width="284" height="165">
<path d="M274.49 21.5239H9.2661C4.43712 21.5239 0.522461 25.1579 0.522461 29.6407V177.552C0.522461 182.035 4.43712 185.669 9.2661 185.669H274.49C279.319 185.669 283.233 182.035 283.233 177.552V29.6407C283.233 25.1579 279.319 21.5239 274.49 21.5239Z" fill="white"/>
</mask>
<g mask="url(#mask0_502_11872)">
<g opacity="0.1">
<path d="M15.875 78.0327H-25.3827L-25.708 79.8969C6.38902 87.3208 27.6232 105.262 36.438 126.813L27.4711 85.6019C25.9212 79.9234 21.431 78.231 15.875 78.0327Z" fill="white"/>
<path d="M104.098 78.0327L88.3584 169.769H113.512L129.265 78.0327H104.098Z" fill="white"/>
<path d="M207.146 81.945C202.007 80.0576 193.948 78.0327 183.89 78.0327C158.241 78.0327 140.174 90.6617 140.019 108.761C139.879 122.138 152.914 129.599 162.762 134.053C172.863 138.617 176.26 141.528 176.211 145.604C176.148 151.844 168.145 154.699 160.684 154.699C150.296 154.699 144.778 153.285 136.257 149.805L132.916 148.329L129.266 169.174C135.337 171.768 146.54 174.019 158.178 174.136C185.461 174.136 203.173 161.652 203.374 142.331C203.473 131.733 196.554 123.675 181.579 117.032C172.504 112.721 166.952 109.852 167.015 105.494C167.015 101.623 171.718 97.4841 181.876 97.4841C190.361 97.3537 196.51 99.1656 201.299 101.046L203.628 102.124L207.146 81.945Z" fill="white"/>
<path d="M254.001 78.0327H274.153L295.248 169.769H271.057C271.057 169.769 268.667 159.225 267.886 156.011C265.872 156.011 257.467 156 249.563 155.989H249.496C242.498 155.98 235.905 155.971 234.506 155.971C233.486 158.461 229.009 169.769 229.009 169.769H201.636L240.353 85.6452C243.095 79.6701 247.761 78.0327 254.001 78.0327ZM252.387 111.541C252.387 111.541 244.159 131.909 242.002 137.2H263.64C262.596 132.606 257.607 110.695 257.607 110.695L255.849 102.778C255.185 104.504 254.278 106.762 253.558 108.554C252.841 110.339 252.311 111.663 252.387 111.541Z" fill="white"/>
<path d="M39.5823 140.696L65.6538 78.0327H93.8643L51.9411 169.742L23.7665 169.769L0.251953 90.2253C18.0843 99.5999 30.5367 112.863 36.8024 127.961L39.5823 140.696Z" fill="white"/>
</g>
</g>
<path d="M67.5581 100.108H29.6689V105.519H67.5581V100.108Z" fill="white"/>
<path opacity="0.5" d="M58.8144 110.929H29.6689V121.751H58.8144V110.929Z" fill="white"/>
<path d="M67.5581 132.573H29.6689V137.984H67.5581V132.573Z" fill="white"/>
<path opacity="0.5" d="M93.789 143.396H29.6689V154.219H93.789V143.396Z" fill="white"/>
<path opacity="0.5" d="M58.86 56.5095H38.3631C33.5604 56.5095 29.667 60.1238 29.667 64.5822C29.667 69.0407 33.5604 72.6549 38.3631 72.6549H58.86C63.6627 72.6549 67.5561 69.0407 67.5561 64.5822C67.5561 60.1238 63.6627 56.5095 58.86 56.5095Z" fill="white"/>
<path opacity="0.5" d="M111.323 56.5095H90.826C86.0233 56.5095 82.1299 60.1238 82.1299 64.5822C82.1299 69.0407 86.0233 72.6549 90.826 72.6549H111.323C116.126 72.6549 120.019 69.0407 120.019 64.5822C120.019 60.1238 116.126 56.5095 111.323 56.5095Z" fill="white"/>
<path opacity="0.5" d="M163.786 56.5095H143.289C138.486 56.5095 134.593 60.1238 134.593 64.5822C134.593 69.0407 138.486 72.6549 143.289 72.6549H163.786C168.588 72.6549 172.482 69.0407 172.482 64.5822C172.482 60.1238 168.588 56.5095 163.786 56.5095Z" fill="white"/>
<path opacity="0.5" d="M216.247 56.5095H195.75C190.947 56.5095 187.054 60.1238 187.054 64.5822C187.054 69.0407 190.947 72.6549 195.75 72.6549H216.247C221.049 72.6549 224.943 69.0407 224.943 64.5822C224.943 60.1238 221.049 56.5095 216.247 56.5095Z" fill="white"/>
</svg>
