<svg width="30" height="30" viewBox="0 0 30 30" fill="none" xmlns="http://www.w3.org/2000/svg">
<path fill-rule="evenodd" clip-rule="evenodd" d="M19.7277 9.41521C20.0938 9.0491 20.6874 9.0491 21.0535 9.41521L25.9754 14.3371C26.3415 14.7032 26.3415 15.2968 25.9754 15.6629L21.0535 20.5848C20.6874 20.9509 20.0938 20.9509 19.7277 20.5848C19.3616 20.2187 19.3616 19.6251 19.7277 19.259L23.9867 15L19.7277 10.741C19.3616 10.3749 19.3616 9.78133 19.7277 9.41521Z" fill="#132D46"/>
<path fill-rule="evenodd" clip-rule="evenodd" d="M11.25 15C11.25 14.4822 11.6697 14.0625 12.1875 14.0625H25.3125C25.8303 14.0625 26.25 14.4822 26.25 15C26.25 15.5178 25.8303 15.9375 25.3125 15.9375H12.1875C11.6697 15.9375 11.25 15.5178 11.25 15Z" fill="#132D46"/>
<path fill-rule="evenodd" clip-rule="evenodd" d="M4.29917 4.29917C4.65081 3.94754 5.12772 3.75 5.625 3.75H12.1875C12.7053 3.75 13.125 4.16973 13.125 4.6875C13.125 5.20527 12.7053 5.625 12.1875 5.625L5.625 5.625L5.625 24.375H12.1875C12.7053 24.375 13.125 24.7947 13.125 25.3125C13.125 25.8303 12.7053 26.25 12.1875 26.25H5.625C5.12772 26.25 4.65081 26.0525 4.29917 25.7008C3.94754 25.3492 3.75 24.8723 3.75 24.375V5.625C3.75 5.12772 3.94754 4.65081 4.29917 4.29917Z" fill="#132D46"/>
</svg>
