<svg width="175" height="27" viewBox="0 0 175 27" fill="none" xmlns="http://www.w3.org/2000/svg">
<path d="M33.9755 3.08156L35.8309 8.7918C36.0317 9.40983 36.6076 9.82827 37.2575 9.82827H43.2616C43.7459 9.82827 43.9473 10.4481 43.5555 10.7328L38.6981 14.2619C38.1723 14.6439 37.9523 15.3209 38.1531 15.939L40.0085 21.6492C40.1582 22.1098 39.631 22.4929 39.2391 22.2082L34.3817 18.6791C33.8559 18.2971 33.1441 18.2971 32.6183 18.6791L27.7609 22.2082C27.369 22.4929 26.8418 22.1098 26.9915 21.6492L28.8469 15.939C29.0477 15.3209 28.8277 14.6439 28.3019 14.2619L23.4445 10.7328C23.0527 10.4481 23.2541 9.82827 23.7384 9.82827H29.7425C30.3924 9.82827 30.9683 9.40983 31.1691 8.7918L33.0245 3.08156C33.1741 2.6209 33.8259 2.6209 33.9755 3.08156Z" fill="#37A3A5" stroke="#37A3A5"/>
<path d="M60.9755 3.08156L62.8309 8.7918C63.0317 9.40983 63.6076 9.82827 64.2575 9.82827H70.2616C70.7459 9.82827 70.9473 10.4481 70.5555 10.7328L65.6981 14.2619C65.1723 14.6439 64.9523 15.3209 65.1531 15.939L67.0085 21.6492C67.1582 22.1098 66.631 22.4929 66.2391 22.2082L61.3817 18.6791C60.8559 18.2971 60.1441 18.2971 59.6183 18.6791L54.7609 22.2082C54.369 22.4929 53.8418 22.1098 53.9915 21.6492L55.8469 15.939C56.0477 15.3209 55.8277 14.6439 55.3019 14.2619L50.4445 10.7328C50.0527 10.4481 50.2541 9.82827 50.7384 9.82827H56.7425C57.3924 9.82827 57.9683 9.40983 58.1691 8.7918L60.0245 3.08156C60.1741 2.6209 60.8259 2.6209 60.9755 3.08156Z" fill="#37A3A5" stroke="#37A3A5"/>
<path d="M87.9755 3.08156L89.8309 8.7918C90.0317 9.40983 90.6076 9.82827 91.2575 9.82827H97.2616C97.7459 9.82827 97.9473 10.4481 97.5555 10.7328L92.6981 14.2619C92.1723 14.6439 91.9523 15.3209 92.1531 15.939L94.0085 21.6492C94.1582 22.1098 93.631 22.4929 93.2391 22.2082L88.3817 18.6791C87.8559 18.2971 87.1441 18.2971 86.6183 18.6791L81.7609 22.2082C81.369 22.4929 80.8418 22.1098 80.9915 21.6492L82.8469 15.939C83.0477 15.3209 82.8277 14.6439 82.3019 14.2619L77.4445 10.7328C77.0527 10.4481 77.2541 9.82827 77.7384 9.82827H83.7425C84.3924 9.82827 84.9683 9.40983 85.1691 8.7918L87.0245 3.08156C87.1741 2.6209 87.8259 2.6209 87.9755 3.08156Z" fill="#37A3A5" stroke="#37A3A5"/>
<path d="M114.976 3.08156L116.831 8.7918C117.032 9.40983 117.608 9.82827 118.257 9.82827H124.262C124.746 9.82827 124.947 10.4481 124.555 10.7328L119.698 14.2619C119.172 14.6439 118.952 15.3209 119.153 15.939L121.009 21.6492C121.158 22.1098 120.631 22.4929 120.239 22.2082L115.382 18.6791C114.856 18.2971 114.144 18.2971 113.618 18.6791L108.761 22.2082C108.369 22.4929 107.842 22.1098 107.991 21.6492L109.847 15.939C110.048 15.3209 109.828 14.6439 109.302 14.2619L104.445 10.7328C104.053 10.4481 104.254 9.82827 104.738 9.82827H110.743C111.392 9.82827 111.968 9.40983 112.169 8.7918L114.024 3.08156C114.174 2.6209 114.826 2.6209 114.976 3.08156Z" fill="#37A3A5" stroke="#37A3A5"/>
<path d="M141.976 3.08156L143.831 8.7918C144.032 9.40983 144.608 9.82827 145.257 9.82827H151.262C151.746 9.82827 151.947 10.4481 151.555 10.7328L146.698 14.2619C146.172 14.6439 145.952 15.3209 146.153 15.939L148.009 21.6492C148.158 22.1098 147.631 22.4929 147.239 22.2082L142.382 18.6791C141.856 18.2971 141.144 18.2971 140.618 18.6791L135.761 22.2082C135.369 22.4929 134.842 22.1098 134.991 21.6492L136.847 15.939C137.048 15.3209 136.828 14.6439 136.302 14.2619L131.445 10.7328C131.053 10.4481 131.254 9.82827 131.738 9.82827H137.743C138.392 9.82827 138.968 9.40983 139.169 8.7918L141.024 3.08156C141.174 2.6209 141.826 2.6209 141.976 3.08156Z" stroke="#37A3A5"/>
</svg>
